<?xml version="1.0" encoding="utf-8"?>
<!-- Generator: Adobe Illustrator 21.0.0, SVG Export Plug-In . SVG Version: 6.00 Build 0)  -->
<svg version="1.1" id="Layer_1" xmlns="http://www.w3.org/2000/svg" xmlns:xlink="http://www.w3.org/1999/xlink" x="0px" y="0px"
	 viewBox="0 0 3300 3300" style="enable-background:new 0 0 3300 3300;" xml:space="preserve">
<style type="text/css">
	.st0{fill:#090908;}
	.st1{fill:#FBFBFA;}
	.st2{fill:#121111;}
	.st3{fill:#FD6F04;}
	.st4{fill:#FFFC00;}
	.st5{fill:#FE6E01;}
	.st6{fill:#FEDA01;}
	.st7{fill:#FEED00;}
	.st8{fill:#FE8001;}
	.st9{fill:#FEB501;}
	.st10{fill:#FEA501;}
	.st11{fill:#FE9301;}
	.st12{fill:#0A0601;}
	.st13{fill:#FD7D02;}
	.st14{fill:#FEC901;}
	.st15{fill:none;enable-background:new    ;}
</style>
<g>
	<path class="st0" d="M3231.5,2248.5c0,158.7,0,317.5-0.1,476.2c0,8.9-0.3,17.9-1.3,26.7c-1.4,12.2-8.1,20.8-18.8,27.4
		c-19.8,12.2-40.2,23.7-60.4,35.2c-13.9,7.9-28.7,14.5-42.3,23.1c-26.3,16.7-55.1,29.1-80.9,46.2c-18.9,12.4-40.3,19.5-58.5,32.5
		c-17.4,12.4-35.5,23.8-54.5,33c-17.9,8.6-35.5,18.2-51.1,29.7c-18.8,13.9-41,20.5-59.7,33.3c-14.1,9.7-30.7,15.3-43.4,27.1
		c-4.5,4.2-10.5,4.4-15.6,7.2c-21,11.4-40.6,24.9-60.6,37.8c-9.3,6-19.9,9.3-29.5,14.5c-21.3,11.6-43.4,22.1-62.4,37.6
		c-2.4,2-5.3,3.4-8.1,4.8c-24,11.3-46.2,25.8-68.5,39.9c-14.1,8.9-30.7,13-44.7,22.4c-14.6,9.7-29.4,19.3-44.5,28.1
		c-12.2,7.1-25.5,12.1-37.5,19.4c-30,18.3-61.7,16.4-92.3,4.9c-15-5.6-30-13.4-44.3-22c-16.8-10.1-33.9-20.4-50.3-30.8
		c-18.8-12-40.7-18.8-57.4-34.3c-0.4-0.4-0.8-0.7-1.3-0.9c-24.1-9-43.8-26-66.7-37.1c-19.6-9.5-38.5-20.3-55.9-33.5
		c-3.7-2.8-8.2-4.6-12.5-6.5c-22.5-9.9-42.6-23.5-62.6-37.9c-13.2-9.6-30.1-14-44.7-22c-15.5-8.4-30.3-18-45-27.7
		c-2.6-1.7-5.2-3.1-8-4.6c-24.9-13.1-48.6-28.1-72.2-43.3c-12.6-8.1-27.7-12.5-40.4-20.4c-16.6-10.3-34.8-18.1-50-31.1
		c-8.4-7.3-19.6-11.7-30.6-15.3c-11.1-3.6-19.8,2.9-26.9,8.8c-9.5,7.9-20.3,12.6-30.6,18.7c-17.9,10.5-35.5,21.3-52.9,32.5
		c-10.2,6.6-21.5,10.6-32.2,16c-20.1,10.1-38.4,22.7-57,35.1c-10.7,7.2-23.6,11.2-34.4,18.3c-14.3,9.4-30.2,15.9-43.6,26.6
		c-2.8,2.2-6.1,4-9.5,5.4c-17.5,7-33.9,16.1-48.5,27.8c-5.5,4.4-13,4.6-18.2,9.1c-18.2,16-41.7,22.8-61.8,35.9
		c-24.6,16.1-50.3,31-76.9,44.1c-14.7,7.2-29.5,14.9-42.5,25.3c-4.6,3.7-10,5.6-15.1,8.2c-22.7,11.6-43.5,26.2-65.2,39.5
		c-37.9,23.3-78.3,31.4-121.9,17.5c-8.5-2.7-13.6-9.7-21-13.3c-25.7-12.6-49.9-27.9-75-41.7c-26.3-14.4-51.9-30.1-78.3-44.5
		c-18.2-9.9-34.5-23.1-52.4-33.6c-11.6-6.8-25.1-11.4-35.8-18.4c-14.8-9.7-32.2-14.6-45.6-26.9c-6.3-5.8-15.8-7.8-23.3-12.5
		c-17.2-10.6-33.4-23.2-51.4-32.2c-14.8-7.4-28.6-16.5-44.4-22.6c-14.3-5.5-27.5-14.8-39.9-24c-8.9-6.6-18.2-11.8-28-16.7
		c-9.7-4.8-19.3-9.5-28.1-16.7c-9.4-7.7-21.4-12.4-32.2-18.6c-12.6-7.2-24.6-15.4-37.4-22.3c-23.3-12.5-47-24.6-69.3-38.7
		c-29.8-18.9-62.4-33-90.4-55.1c-12-9.4-28.1-13.6-42.1-20.5c-15-7.4-28.3-17.5-40.6-28.8c-7.3-6.7-9.3-16.3-9.7-25.9
		c-0.4-6.8-0.2-13.7-0.2-20.5c0-281.2-0.2-562.4,0.3-843.6c0-28.4-5.1-56.4-4.1-84.8c0.6-18.4,4.3-36.4,4.8-54.8
		c0.3-11.6,6.5-21.3,17.1-26.7c21-10.6,39.9-24.6,59.9-36.7c23.1-13.9,47.2-25.8,70.3-39.6c24.9-14.9,49.9-29.5,74.8-44.4
		c11.6-6.9,23.5-13.3,35.3-19.7c18.8-10.2,36.7-21.7,54.9-32.7c22.8-13.8,47.3-23.8,70-37.3c21.8-13,43.2-26.9,65.1-39.7
		c21.5-12.6,42.5-25.9,64.5-37.5c27.1-14.4,52.8-31.2,79.2-46.5c18.2-10.6,35.1-24.2,56-30.3c12-3.5,18.9-16.5,32-19.1
		c2.1-0.4,2.3-3.3,2.3-5.4c0.1-4.7,0.1-9.5,0.1-14.2c0-247.6,0-495.1,0-742.7c0-7.9,0.6-15.6,2.4-23.4c2-8.8,6.5-15.8,13.9-20.2
		c13.3-8,25.5-18.1,40.5-23.2c8.5-2.9,15.7-7.4,22.5-13.6c10.1-9.3,23.8-12.9,35.6-19.6c19-10.6,38-21.2,55.9-33.6
		c0.9-0.6,1.6-1.4,2.6-1.8c16.7-7.2,31.9-16.6,47.2-26.7c17.1-11.2,35.1-21.9,54.2-30.5c24.1-10.8,46-25.8,68.6-39.6
		c20.7-12.7,42.2-24.5,63.3-36.6c19.9-11.5,41.2-20,60.4-32.2c10.9-6.9,22.4-13.3,32.7-21.1c8.5-6.4,17.5-11.4,26.9-15.7
		c8.1-3.7,16.2-7.1,22.5-13.7c1.8-1.9,4-3.7,6.4-4.4c28.7-9.1,51.9-28.6,78-42.5c18.6-9.9,35.9-22.8,54.6-32.6
		c22.1-11.6,43.2-24.5,63.8-38.6c13.6-9.3,30.4-14,44.4-22.9c14.4-9.2,30.5-15.5,43.6-26.8c5.8-5,13.2-6.3,20.2-8.2
		c27.2-7.1,54-5.8,80.7,2.8c9.8,3.2,16.2,11,24.9,15.7c22.9,12.3,45.4,25.2,68.7,36.8c12.7,6.3,24.4,15.7,36.6,23.6
		c8.8,5.7,17.7,10.6,27.2,14.8c17.1,7.6,32.2,18.9,48.3,28.3c12.5,7.3,25,15.3,37.9,21.5c17.9,8.6,34.8,19.2,51.3,29.4
		c28.7,17.6,59.8,31.1,86.5,52.5c9.5,7.7,22.4,12.9,34.8,17.4c18.2,6.6,32.9,19.6,50.1,28.2c17.6,8.8,34.8,18.6,49.8,31.7
		c2.1,1.8,4.4,2.6,6.8,3.6c25.9,10.9,49.9,26,74.2,39.7c18.7,10.6,37.8,21.5,55.9,33.9c18.9,13,40.9,22.6,60.7,34.7
		c20.7,12.7,45.1,19.5,62.6,37.6c3.8,3.9,9.9,6,15.3,7.7c15.7,4.9,28.1,15.6,42.4,23c12,6.3,14,18.9,15.6,31
		c0.6,4.7,0.2,9.4,0.2,14.2c0,247.6,0,495.1,0,742.7c0,4.2-0.1,8.4,0.1,12.6c0.1,2.5-0.2,5.5,3.1,6.5c14.6,4.4,25.5,15.5,39.4,21.7
		c19.7,8.7,38.2,20.8,55.9,33.5c3.8,2.7,8.1,4.7,12.3,6.8c22.4,11.1,43.2,25.1,65.2,36.9c19,10.3,37.6,22,56.5,32.5
		c23.1,12.9,44.7,28.2,68.8,39.9c17,8.3,34.1,17.5,50.6,27.4c22.2,13.3,44.5,26.6,66.3,40.8c17.1,11.1,36.2,18.4,53.2,29.2
		c21,13.4,43.2,24.7,64.4,37.6c18,11,37.1,20.7,55.4,31.4c14.8,8.7,30,16.6,44.7,25.3c12.5,7.4,24,16.7,34.9,26.4
		c8.7,7.8,14,18.3,14.7,30.5c0.3,5.8,0.6,11.5,0.6,17.3C3231.5,1927.9,3231.4,2088.2,3231.5,2248.5
		C3231.5,2248.5,3231.5,2248.5,3231.5,2248.5z M111.5,2244.4c0.1,0,0.1,0,0.2,0c0,157.7,0.1,315.4-0.2,473.1
		c0,12.9,2.9,20.8,15.3,27.2c25.1,13,48.9,28.3,73.4,42.5c38,22.2,76.1,44.3,114.2,66.3c39.9,23.1,79.9,45.9,119.8,69
		c37.6,21.8,75.2,43.7,112.8,65.5c54.4,31.4,109,62.7,163.4,94.1c24,13.9,48,27.9,72,41.8c42.2,24.4,84.5,48.6,126.7,73
		c15,8.6,30.1,17,44.8,26c6.2,3.8,11,3.8,17.3-0.1c16.5-10.1,33.6-19.3,50.4-28.9c37.7-21.8,75.2-43.7,112.9-65.4
		c49.9-28.9,99.7-57.7,149.6-86.5c41.3-23.9,82.6-47.6,123.9-71.5c39-22.5,78-45.1,117-67.7c38.1-22.1,76.3-44,114.2-66.3
		c8.3-4.9,15.4-4.5,23.5,0.2c25.3,14.9,50.9,29.2,76.3,43.9c50.3,29.2,100.3,58.7,150.7,87.8c50.4,29.1,101.1,57.5,151.5,86.6
		c49.9,28.8,99.2,58.6,149.3,87.2c44.1,25.2,88.5,49.9,131.8,76.4c11,6.7,20.5,7.5,31.5,0.4c16.7-10.8,34-20.6,51.3-30.5
		c72.2-41.5,144.8-82.4,216.8-124.3c55.7-32.4,111.6-64.5,167.4-96.7c66.7-38.5,133.3-77.1,200.1-115.3
		c61.9-35.3,122.9-72.1,184.9-107c12-6.8,15.5-13.9,15.5-26.9c-0.4-317-0.5-634-0.3-950.9c0-9.9-3.4-15.6-11.5-20.1
		c-20.6-11.4-41.2-23-61.6-34.8c-53.1-30.7-106-61.6-159-92.3c-42.1-24.5-84.3-48.9-126.5-73.2c-50-28.8-100.1-57.2-150.1-86
		c-54.5-31.4-108.8-63.1-163.5-94.2c-11.6-6.6-16.8-14.1-16.8-28.4c0.6-133.5,0.4-267,0.4-400.6c0-120.4,0-240.8,0.1-361.1
		c0-8.2-0.3-15-8.9-19.9c-41.9-23.8-83.4-48.3-125.2-72.3c-39.5-22.7-79.3-44.9-118.8-67.7c-49.4-28.5-98.5-57.7-148-86.2
		c-73.1-42.1-146.5-83.5-219.6-125.7c-72.6-41.9-145.1-84-217.4-126.4c-8.7-5.1-15.5-5.4-24.4-0.2c-46.9,27.7-94.2,54.8-141.3,82.1
		c-49,28.4-97.8,56.9-146.9,85.1c-61.3,35.2-123,69.9-184.2,105.3c-61.2,35.3-121.9,71.7-183.3,106.7c-56,32-111.7,64.3-167.8,96.1
		c-12.6,7.2-16,14.7-16,28.3c0.4,252.3,0.2,504.6,0.6,757c0,11.6-2.4,19.9-12.9,25.9c-45.5,26-90.8,52.4-136.2,78.5
		c-51.3,29.6-102.6,59.1-153.9,88.6c-62.2,35.9-124.3,71.8-186.5,107.7c-48.6,28-97.2,55.9-145.8,83.9c-14.1,8.1-28.3,16.1-42,24.6
		c-6,3.7-11.3,7.2-11.2,16.9c0.8,54.1,0.5,108.2,0.5,162.3C111.5,2033.1,111.5,2138.7,111.5,2244.4z"/>
	<path class="st1" d="M111.5,2244.4c0-105.7,0-211.3,0-317c0-54.1,0.3-108.2-0.5-162.3c-0.1-9.7,5.2-13.2,11.2-16.9
		c13.8-8.6,28-16.5,42-24.6c48.6-28,97.2-55.9,145.8-83.9c62.2-35.9,124.3-71.8,186.5-107.7c51.3-29.6,102.6-59.1,153.9-88.6
		c45.4-26.2,90.7-52.6,136.2-78.5c10.5-6,13-14.3,12.9-25.9c-0.3-252.3-0.2-504.6-0.6-757c0-13.6,3.4-21.2,16-28.3
		c56-31.9,111.8-64.1,167.8-96.1c61.4-35.1,122.1-71.4,183.3-106.7c61.3-35.4,122.9-70,184.2-105.3c49.1-28.2,97.9-56.8,146.9-85.1
		c47.1-27.3,94.4-54.4,141.3-82.1c8.9-5.3,15.7-4.9,24.4,0.2c72.3,42.4,144.8,84.6,217.4,126.4c73.1,42.1,146.5,83.6,219.6,125.7
		c49.5,28.5,98.6,57.6,148,86.2c39.5,22.8,79.3,45,118.8,67.7c41.8,24,83.3,48.5,125.2,72.3c8.7,4.9,8.9,11.7,8.9,19.9
		c-0.1,120.4-0.1,240.8-0.1,361.1c0,133.5,0.2,267-0.4,400.6c-0.1,14.3,5.2,21.8,16.8,28.4c54.7,31.1,108.9,62.8,163.5,94.2
		c50,28.7,100.1,57.2,150.1,86c42.2,24.3,84.4,48.8,126.5,73.2c53,30.8,106,61.6,159,92.3c20.4,11.8,41,23.4,61.6,34.8
		c8.1,4.5,11.5,10.2,11.5,20.1c-0.2,317-0.1,634,0.3,950.9c0,13-3.4,20.1-15.5,26.9c-62.1,35-123.1,71.7-184.9,107
		c-66.9,38.2-133.4,76.8-200.1,115.3c-55.8,32.2-111.7,64.3-167.4,96.7c-72,41.9-144.5,82.8-216.8,124.3
		c-17.3,9.9-34.6,19.8-51.3,30.5c-11.1,7.1-20.6,6.3-31.5-0.4c-43.3-26.5-87.7-51.2-131.8-76.4c-50.1-28.5-99.4-58.3-149.3-87.2
		c-50.3-29.1-101.1-57.5-151.5-86.6c-50.3-29-100.4-58.6-150.7-87.8c-25.4-14.8-51-29.1-76.3-43.9c-8.1-4.8-15.2-5.1-23.5-0.2
		c-37.9,22.3-76.1,44.2-114.2,66.3c-39,22.6-78,45.2-117,67.7c-41.3,23.9-82.6,47.6-123.9,71.5c-49.9,28.8-99.7,57.7-149.6,86.5
		c-37.6,21.8-75.2,43.7-112.9,65.4c-16.8,9.7-33.8,18.9-50.4,28.9c-6.3,3.8-11.1,3.9-17.3,0.1c-14.7-9-29.9-17.4-44.8-26
		c-42.2-24.3-84.5-48.6-126.7-73c-24-13.9-48-27.9-72-41.8c-54.5-31.4-109-62.7-163.4-94.1c-37.7-21.7-75.2-43.7-112.8-65.5
		c-39.9-23.1-79.9-45.9-119.8-69c-38.1-22-76.2-44.2-114.2-66.3c-24.4-14.2-48.3-29.5-73.4-42.5c-12.4-6.4-15.3-14.4-15.3-27.2
		c0.4-157.7,0.2-315.4,0.2-473.1C111.6,2244.4,111.5,2244.4,111.5,2244.4z M2405.7,1013.8c0-127.2-0.1-254.4,0.2-381.6
		c0-10.8-2.8-17.2-12.7-22.5c-23.1-12.3-45.6-25.9-68.2-39.1c-51.7-30-103.4-60.1-155.1-90.1c-52.2-30.2-104.5-60.3-156.7-90.4
		c-37.3-21.5-74.5-43-111.7-64.5c-49.1-28.3-98.1-56.7-147.2-84.9c-31.4-18.1-63-35.7-94-54.3c-7.5-4.5-12.7-3.9-19.9,0.3
		c-38.9,22.8-78.2,44.9-117.3,67.5c-47.3,27.2-94.4,54.6-141.6,82c-24.9,14.5-49.7,29.3-74.7,43.7c-39.1,22.4-78.5,44.4-117.6,66.9
		c-38.6,22.3-76.6,45.6-115.4,67.6c-56.1,31.8-111.9,64.2-167.7,96.5c-9,5.2-11.1,10.9-11.1,20c0.3,44.2,0.1,88.3,0.1,132.5
		c0,210.3-0.1,420.5,0.2,630.8c0,12-3.4,19.4-14,25.2c-25.3,13.9-49.9,28.9-74.9,43.3c-42.2,24.4-84.6,48.7-126.8,73.1
		c-35.9,20.7-71.6,41.7-107.5,62.4c-41.8,24.1-83.7,48.1-125.4,72.2c-35.9,20.8-71.5,41.9-107.4,62.6c-39.1,22.5-78.2,45-117.6,67
		c-10.5,5.8-14.1,13-14.1,25.1c0.4,279.6,0.3,559.3,0.3,838.9c0,3.2,0,6.3,0,9.5c-0.1,5.7,2,9.8,7.4,12.7
		c9.2,4.9,18.1,10.6,27.2,15.8c40.8,23.7,81.7,47.3,122.5,71c35.9,20.8,71.7,41.5,107.6,62.2c41.8,24.1,83.7,48.1,125.5,72.2
		c36.3,21,72.6,42.1,108.9,63.1c40.4,23.3,81,46.5,121.4,69.8c41.8,24.1,83.7,48,125.4,72.4c6.2,3.6,10.7,3.9,17.2,0.1
		c43-25.2,86.4-49.8,129.6-74.6c36.3-20.9,72.6-42,108.9-63c27.7-16,55.5-31.8,83.2-47.8c40.9-23.6,81.7-47.4,122.5-71.1
		c38.1-22.1,76.3-44.1,114.4-66.2c37.2-21.6,74.5-43.1,111.6-64.8c6.7-3.9,12.5-3.7,19.1,0.2c38.4,22.6,76.9,45.1,115.5,67.5
		c35.4,20.6,70.8,41,106.3,61.4c50.4,29.1,101,58,151.4,87.1c38.6,22.3,77.1,44.9,115.7,67.2c54,31.2,108.2,62.2,162.1,93.6
		c27.2,15.9,27.6,15.8,54.7-0.2c41.6-24.5,83.5-48.4,125.3-72.5c37.2-21.5,74.5-43.1,111.7-64.6c39.5-22.8,79-45.6,118.6-68.4
		c37.7-21.7,75.5-43.3,113.2-65.2c38.6-22.4,77-45,115.6-67.4c43.1-25,86.1-50.2,129.6-74.4c10.7-6,14.1-12.7,14.1-24.8
		c-0.4-211.3-0.3-422.6-0.3-633.9c0-69.4-0.2-138.8,0.2-208.2c0.1-10.1-2.7-16.7-12-21.5c-14.4-7.5-28.2-16.1-42.3-24.2
		c-50-28.8-100-57.7-149.9-86.5c-40-23.1-79.9-46.2-119.8-69.3c-38.6-22.3-77.2-44.5-115.8-66.8c-40.9-23.6-81.7-47.3-122.6-70.9
		c-36.4-20.9-72.6-42.1-109.3-62.5c-12.5-6.9-16.8-15.7-16.7-30.3C2406,1265,2405.7,1139.4,2405.7,1013.8z"/>
	<path class="st2" d="M2405.7,1013.8c0,125.6,0.3,251.3-0.4,376.9c-0.1,14.6,4.3,23.3,16.7,30.3c36.6,20.4,72.9,41.5,109.3,62.5
		c40.9,23.6,81.7,47.3,122.6,70.9c38.6,22.3,77.2,44.5,115.8,66.8c40,23.1,79.9,46.2,119.8,69.3c50,28.9,99.9,57.7,149.9,86.5
		c14.1,8.1,27.9,16.8,42.3,24.2c9.3,4.8,12,11.4,12,21.5c-0.4,69.4-0.2,138.8-0.2,208.2c0,211.3-0.1,422.6,0.3,633.9
		c0,12.1-3.4,18.8-14.1,24.8c-43.5,24.2-86.5,49.4-129.6,74.4c-38.6,22.4-77,45-115.6,67.4c-37.7,21.8-75.4,43.4-113.2,65.2
		c-39.5,22.8-79.1,45.6-118.6,68.4c-37.2,21.5-74.5,43-111.7,64.6c-41.8,24.1-83.7,48-125.3,72.5c-27.2,16-27.5,16.1-54.7,0.2
		c-53.9-31.4-108.1-62.4-162.1-93.6c-38.6-22.3-77-44.9-115.7-67.2c-50.4-29.1-100.9-58.1-151.4-87.1
		c-35.5-20.4-70.9-40.8-106.3-61.4c-38.6-22.4-77.1-44.9-115.5-67.5c-6.6-3.9-12.4-4.1-19.1-0.2c-37.1,21.8-74.4,43.3-111.6,64.8
		c-38.1,22.1-76.3,44.1-114.4,66.2c-40.8,23.7-81.7,47.4-122.5,71.1c-27.7,16-55.5,31.9-83.2,47.8c-36.3,21-72.6,42.1-108.9,63
		c-43.2,24.9-86.5,49.5-129.6,74.6c-6.5,3.8-11,3.5-17.2-0.1c-41.7-24.3-83.6-48.3-125.4-72.4c-40.5-23.3-81-46.5-121.4-69.8
		c-36.3-21-72.6-42.1-108.9-63.1c-41.8-24.1-83.7-48.1-125.5-72.2c-35.9-20.7-71.7-41.5-107.6-62.2c-40.9-23.7-81.7-47.3-122.5-71
		c-9.1-5.3-17.9-10.9-27.2-15.8c-5.4-2.9-7.5-7-7.4-12.7c0-3.2,0-6.3,0-9.5c0-279.6,0.1-559.3-0.3-838.9c0-12.1,3.6-19.3,14.1-25.1
		c39.4-22,78.5-44.4,117.6-67c35.9-20.7,71.5-41.8,107.4-62.6c41.8-24.2,83.7-48.1,125.4-72.2c35.9-20.7,71.6-41.7,107.5-62.4
		c42.2-24.4,84.6-48.7,126.8-73.1c25-14.4,49.7-29.4,74.9-43.3c10.6-5.8,14.1-13.3,14-25.2c-0.3-210.3-0.2-420.5-0.2-630.8
		c0-44.2,0.1-88.3-0.1-132.5c-0.1-9.2,2.1-14.8,11.1-20c55.8-32.4,111.6-64.7,167.7-96.5c38.8-22,76.8-45.3,115.4-67.6
		c39.1-22.6,78.5-44.5,117.6-66.9c25-14.3,49.8-29.2,74.7-43.7c47.2-27.4,94.4-54.7,141.6-82c39.1-22.5,78.4-44.7,117.3-67.5
		c7.2-4.2,12.3-4.8,19.9-0.3c31.1,18.5,62.7,36.2,94,54.3c49.1,28.3,98.1,56.6,147.2,84.9c37.2,21.5,74.5,43,111.7,64.5
		c52.2,30.1,104.5,60.2,156.7,90.4c51.8,30,103.4,60.1,155.1,90.1c22.7,13.2,45.1,26.8,68.2,39.1c9.9,5.3,12.7,11.7,12.7,22.5
		C2405.6,759.3,2405.7,886.6,2405.7,1013.8z M1919.6,1775.1c-0.9,0.7-1.8,1.3-2.7,2l-1.3-0.3l-0.7,1.1c-4.4,0.3-7.4,2.8-9.7,6.3
		c-8.6,4.5-17.8,8.2-25.8,13.7c-13.2,9-28.7,14-40.7,24.9c-7,1.2-12.1,6-17.9,9.3c-27.7,15.7-55,31.9-82.5,48
		c-4.7,0.1-10.1-6.3-14.1,0.5c-3.5,5.7-11.2,11.2-3.6,19.1c-0.1,3.7-0.3,7.3-0.3,11c0.1,93.4,0.3,186.8,0.3,280.1
		c0,132.7,0,265.5-0.3,398.2c0,8.4,2.3,13.2,9.7,17.5c52.7,30.2,104.9,61.4,157.8,91.2c18.2,10.3,35.1,22.8,55,30l0.2,0.9l1,0.1
		c-0.2,1.6,0.5,2,1.9,1.5c0.5,1,1.3,1.3,2.4,1.1c0.7,1.9,1.9,2.8,4,2.6l0.3,0.9l0.9,0.1c-0.1,1.4,0.5,2,1.9,1.6
		c0.5,1,1.3,1.4,2.4,1.2c2.9,2.7,6.1,4.6,10.1,4.8c1.1,0.6,2.2,1.1,3.3,1.7c0.3,1.9,1.5,2.1,3.1,1.7c1,0.7,2,1.4,3.1,2.1
		c0.3,1.6,1.3,2.2,2.9,1.8c14.7,8.9,29.3,18.1,44.1,26.8c43,25.1,85.8,50.6,129.4,74.6c15.9,8.8,30.3,20.6,48.1,25.9
		c1.6,1.3,3,3,4.7,4c38.8,22.8,77.7,45.5,116.6,68.2c1.9,1.1,3.9,1.2,5.8-0.2c2.5,5.2-1.8,14.8,10.9,13c11.9-1.7,12.1-0.3,13.8-13.2
		c25.9-14.8,51.7-29.6,77.6-44.4c29-16.7,58-33.3,86.9-50.2c13.5-7.9,26.6-16.4,39.9-24.6c7.9-1.6,13.9-7.1,20.7-10.9
		c17.8-9.8,35-20.8,52.4-31.4c26.2-13.1,51.6-27.5,75.7-44.2c25.5-12.3,50.2-26.1,73.3-42.6c2.4,0.2,4.4-0.5,6.2-2
		c1.3,0.5,2.1,0.1,2.3-1.3c16.2-9.6,32.3-19.2,48.5-28.9l0.3,0.9l0.3-0.8c1.1-0.3,1.7-1,1.8-2.1c3.2-0.3,6.5-0.5,8.1-4
		c1.5-0.5,3-1,4.5-1.5c3-0.1,3.2-2.4,3.5-4.6c6.3,0.5,9.8-5,14.7-7.4c23.5-11.6,46.4-24.5,68.1-39.5c3-0.2,5.5-1.2,6.3-4.5
		c7.2,0.1,10.6-3.6,10.7-10.6c0.1-3.7,0.1-7.4,0.1-11c0-177.6,0-355.3,0-532.9c0-48.3-0.4-96.7-0.6-145c11.2-9,11.2-9,6.5-17.9
		c-4.7-8.9-5.5-9.1-18.6-4.5c-4.3-2.9-8.5-6.1-13-8.7c-31.8-18.4-63.6-36.8-95.4-55.1c-38.2-22-76.4-43.9-114.6-65.9
		c-35.5-20.4-71-40.8-106.3-61.3c-29-16.9-57.8-34.1-86.8-50.9c-40.8-23.7-81.7-47.3-122.6-70.9c-19.6-11.3-39.3-22.2-58.9-33.5
		c-3.8-2.2-7.3-4.4-11.6-1.7c-13.2,8.5-28.4,13.8-40.1,24.7c-18.5,6.5-34,18.5-50.8,28.1c-14.9,8.5-31.3,14.9-44.2,26.8
		c-28.6,13.6-55.3,30.5-82.2,47.1c-22.1,10.9-43.5,23-63.4,37.6c-17.2,6.1-31.9,16.5-46.9,26.4c-2-0.2-3.7,0-4.5,2.2
		c-1.1-0.1-1.8,0.3-2.2,1.3c-1.5-0.3-2.2,0.4-2.2,1.9l-0.7,0.5c-2-0.2-3.7,0.1-4.2,2.4c-1.2-0.2-2,0.2-2.5,1.2
		c-4.1,0.4-7.6,1.9-10.2,5.2c-1-0.3-1.6,0.1-1.9,1c-2-0.4-3.4,0.2-3.7,2.4c-1.1,0.7-2.2,1.4-3.3,2l-0.9-0.2l0,0.9
		c-1-0.1-1.7,0.3-2.1,1.3c-3.8,0.6-7,2.4-9.5,5.4c-1,0.5-2,1-2.9,1.5c-3.4,0-5.9,1.7-7.8,4.5c-1.6,0.7-3.2,1.5-4.8,2.2l-1.1-0.1
		l-0.1,1.1c-1,0-1.7,0.4-2,1.4c-3.3,0.2-6.1,1.4-7.3,4.8c-0.9,0.7-1.8,1.3-2.7,2c-1.6-0.6-2.6-0.2-3.1,1.5c-1.9,0.8-3.9,1.5-5.8,2.3
		l-0.9-0.3L1919.6,1775.1z M1453.7,456l-0.8-0.2l0,0.8c-1.1,0-1.8,0.4-2.3,1.4c-2-0.5-3.7-0.3-4.4,2c-0.9-0.3-1.5,0.1-1.7,1
		c-1.9-0.4-3.3-0.1-3.7,2.1c-1.1-0.2-1.9,0.2-2.6,1.1c-1.9-0.5-3.4-0.3-3.8,2c-1,0.7-1.9,1.3-2.9,2l-1.1,0l-0.2,1.1
		c-0.9-0.2-1.3,0.2-1.5,1c-2-0.3-3.7-0.1-4.3,2.3c-1.1,0-1.8,0.5-2.2,1.6c-29.6,13.9-56.9,31.8-84.9,48.4c-12.7,4.3-22.4,13.8-34,20
		c-8.1-0.3-12.5,6.6-18.5,10c-23.7,13.6-48.4,25.5-70.3,42.1c-20.5,8.4-39.1,20.2-57.2,32.6c-2.2,0-3.8,0.8-4.6,3
		c-1.3,0.6-2.7,1.3-4,1.9c-19.5,8.2-88.5,49.5-95.9,57.5c3.2,1.9,6.2,3.9,9.4,5.8c59.4,34.2,118.7,68.5,178.2,102.6
		c20.8,11.9,41.9,23.1,62.9,34.6c2.1,1.6,4,3.4,6.2,4.6c42.2,24.4,84.4,48.9,126.7,73.1c17.6,10,34.5,21.3,53.2,29.3
		c46.1,26.8,92.1,53.9,138.3,80.4c9.8,5.6,18.5,15.5,30.7,14.6c12.8-0.9,22-11,32.8-17.1c14.7-6.3,27.1-16.6,41.2-24
		c25-12.4,48.9-26.6,72.4-41.5c1.9-0.8,4-1.4,5.7-2.4c145.7-83.7,291.4-167.4,437-251.2c2.9-1.6,7-2.4,7.2-7.6
		c-24.1-15.6-49.5-29.2-74.5-43.6c-60.3-34.9-120.4-70.4-181.1-104.8c-38.3-21.7-76-44.3-114.7-65.3c-22.8-12.4-44.9-26.7-67.5-39.9
		c-51.2-29.8-102.6-59.4-153.7-89.6c-9.2-5.4-16.6-6.1-26-0.3c-25.4,15.7-51.4,30.4-77.2,45.5c-34.4,20.1-68.8,40.1-103.2,60.2
		l-0.5-0.3c0,0,0.1,0.6,0.1,0.6C1455.6,454.4,1454.6,455.2,1453.7,456z M1099.1,1612.5c-0.3-1-1-1.5-2-1.4l-0.2-1.1l-1.1,0.2
		c-25.7-15.1-51.3-30.4-77.1-45.3c-16.3-9.4-32.9-18.4-49.2-27.7c-3.9-2.2-7.4-4-11.6-1.3c-10.1,6.5-22.1,9.7-30.7,18.5
		c-5.2,2.4-10.7,4.4-15.4,7.4c-19.7,12.7-41.7,21.6-59.9,36.6c-23.5,10.3-45.3,23.4-66.2,38.3c-19.2,5.8-34.3,19.2-51.8,28.2
		c-6.3,3.2-13.8,5.4-18,12c-26,12.2-50.7,26.7-74.7,42.6c-16.1,6.4-30.4,16.1-44.9,25.1c-10.1,6.2-22,9.7-30.1,19
		c-9.1,1.4-16,7.4-23.4,11.9c-19,11.4-39.5,20.5-57,34.5c-6.5,0.7-11.6,4.6-16.9,7.7c-24.3,13.9-48.6,27.9-72.5,42.6
		c-10.5,6.5-22.8,10.2-31.4,19.6c-10.7-2.7-13.2-1.5-16.3,7.4c-1.7,5-0.9,9.2,2.1,13.4c-7.5,4.8-4.1,12.4-4.1,18.7
		c-0.2,135.6-0.2,271.1-0.2,406.7c0,86.7,0,173.4-0.1,260.1c0,8.8,0.6,16.1,9.7,21.2c32,18,63.6,36.7,95.4,55.1
		c40.9,23.6,81.7,47.2,122.6,70.9c36.3,21.1,72.5,42.3,108.9,63.3c38.6,22.3,77.4,44.3,116.1,66.5c49.5,28.5,99,57.1,148.4,85.7
		c-0.2,21.4-0.5,42.8-0.4,64.1c0,10.9,1,11.5,11.8,11.7c12,0.2,13.2-0.5,13.4-11.7c0.4-20.5,0.4-41,0.5-61.4
		c10.7-3.2,19.1-10.8,28.6-16.1c38.3-21.5,76.4-43.6,114.5-65.6c41.3-23.8,82.6-47.5,123.6-71.8c19.3-11.5,39.9-20.9,57.8-34.7
		c28.7-13.7,55.4-30.9,82.7-47.1c14.5-8,29.5-15.3,43.3-24.4c8.6-5.7,19.1-8.2,26-16.3c2-0.6,4.1-1,5.9-2
		c26.3-15.6,52.5-31.4,78.7-47.1c11.9-3.1,20.8-12.1,31.8-16.8c11.9-5,15.3-12.6,15.3-25.4c-0.4-167.5-0.2-334.9-0.2-502.4
		c0-59.8-0.3-119.7-0.5-179.5c3-4,7.8-5,11.8-7.5c2.2-1.4,4.1-3.2,4-6.2c-0.3-10.4-9.6-16.5-19.2-12.8c-3.9,1.5-7.7,3.1-11.6,4.7
		c-35.7-20.7-71.1-41.9-107.2-61.8c-29.7-16.3-58-35.3-88.6-49.9l-0.4-1.4l-1.4,0c-1-0.5-1.9-1-2.9-1.4c-0.4-1.6-1.3-2.2-3-1.6
		c-1.6-2.2-3.5-3.9-6.3-4.6c-0.6-1.7-1.8-2.2-3.4-1.5c-1-0.6-2-1.2-3-1.7c-0.3-2.1-1.6-2.6-3.5-2c-1-0.4-1.9-0.8-2.9-1.2
		c-0.5-1.7-1.7-2.1-3.2-1.5c-0.8-0.6-1.6-1.2-2.4-1.9l-0.1-1.1l-1,0.2c-1.1-0.7-2.1-1.3-3.2-2c-1.1-3.1-3.7-3.6-6.5-3.7
		c-1.3-1.8-3.1-2.8-5.3-3c-0.6-2.2-2-2.5-3.9-1.9c-1.2-2.2-3.1-3.5-5.6-3.9c-1.3-1.9-2.7-1.3-4.1-0.2
		c-17.9-15.9-39.7-25.3-60.4-36.7c-28.8-18.9-59.2-35.1-89.2-52c-0.8-2.4-2.4-2.9-4.6-2.2c-0.3-1-0.9-1.3-1.9-1l-0.1-1l-1,0.3
		c-1.2-0.7-2.3-1.4-3.5-2.2c-0.3-1.9-1.4-2.3-3-1.8c-1-0.4-1.9-0.8-2.9-1.2c-1.5-3-4.1-4.3-7.2-4.9c-1.3-0.6-2.7-1.2-4-1.8l-0.3-1.1
		l-1.1,0.2c-1.1-0.7-2.1-1.4-3.2-2.1c-2.4-3.6-5.9-5.2-10.1-5.6c-0.2-0.9-0.8-1.2-1.7-0.9l-0.1-1l-1,0.3c-1.8-0.8-3.6-1.6-5.5-2.4
		l0-0.8c0,0-0.8,0.4-0.8,0.4c-1.4-1-2.8-2-4.2-3C1101.2,1612.5,1100.5,1612,1099.1,1612.5z M1730.1,1719.2c1-0.6,2.1-1.2,3.1-1.8
		c1.5,0.6,2.5,0.2,2.6-1.6c1.3-0.6,2.6-1.3,3.8-1.9c3.4,0.4,5.8-0.8,7-4c1,0,1.6-0.4,2-1.3c2,0.6,3.2-0.5,4-2.2
		c5.2-6.8,15-5.8,20.4-12.3c17.9-8.5,35.1-18,51.1-29.7c3.4-1,7.3-1.2,9.2-4.9c1.2-0.7,2.3-1.5,3.5-2.2c5.5-0.4,9.9-2.7,13.2-7.1
		c1-0.6,2-1.2,3-1.8l1.1,0.1l0.2-1c1.5-1.1,3.1-2.2,4.6-3.3l0.7,0.4l-0.2-0.7c1.1-0.6,2.2-1.2,3.3-1.8c1.5,0.6,2.6,0.5,2.7-1.4
		c1.2-0.6,2.3-1.2,3.5-1.8c1.7,0.7,2.7,0.1,3.2-1.6c1.1,0.1,2-0.3,2.7-1.2c1.9,0.6,3.4,0.3,3.9-1.9c1.1-0.1,1.8-0.6,2.1-1.6l1.2-0.1
		l0.1-1.2c2.4-2.5,6.7-2.1,8.2-5.8c21.2-8.6,40.3-20.9,59.3-33.6c24.9-12.1,48.6-26.1,71.3-41.9c28.2-12.7,54.1-29.4,80.3-45.6
		c11.2-3.2,20-10.9,29.9-16.5c26.1-14.9,51.9-30.5,77.8-45.7l1.4,0l0.9-1.2c1.6,0.3,2.7-0.3,3-1.9c15-8.7,31.6-14.7,44.6-26.7
		c12.9-2.7,8.3-13.2,8.3-20.5c0.3-220.2,0.2-440.4,0.2-660.6c0-4.2,0.2-8.5-0.8-12.4c-0.6-2.5-3.2-1.6-4.8,0.3
		c-4.7,2.3-9.5,4.3-14,6.9c-120.6,69.3-241.3,138.5-361.8,208c-24.5,14.1-49.7,27.1-73.2,43c-33.1,17.2-65.2,36.2-97.1,55.5
		c-14.4,5.7-26.2,16.4-41.4,20.9c-7.3,2.2-9.2,9-9.2,16.4c0.1,22.9-0.8,45.8,0.7,68.6c-1.2,40-1.2,79.9,0.1,119.9
		c-1.2,35.8-1.2,71.5,0.1,107.3c-1.1,32.6-1.3,65.2,0.1,97.8c-1.1,36.8-1.2,73.6,0,110.4c0,60.2,0,120.5,0,183.7
		c21.3-12.8,40.8-24.5,60.4-36.3C1728.3,1721.6,1729.8,1721.4,1730.1,1719.2z M1078.4,1434.4c0.4,0.9,1.1,1.4,2.1,1.3
		c1.5,3.1,4.2,4.4,7.5,4.8c178.1,103.3,356.1,206.5,534.2,309.8c3.2,1.8,6.5,3.5,9.7,5.2c1.9,0.9,3.8,1.7,5.8,2.4
		c0.4,0.2,1.1-0.1,1.5-0.3c0.4-0.2,0.7-0.6,1.3-1.1c0-7.1,0-14.4,0-21.7c1.1-40,0.9-79.9,0-119.9c1-56.8,1-113.5-0.2-170.3
		c1.2-24.2,1-48.4,0-72.6c0.2-17.2,0.6-34.4,0.5-51.6c-0.1-44.8-0.5-89.7-0.7-134.5c0.2-16.8,0.5-33.6,0.7-50.3
		c0.2-22.6-0.4-45.2,1-67.7c0.6-8.8-1.3-13.2-8.9-17.4c-62.5-35.5-124.7-71.4-187.1-107.2c-4.1-2.3-8-5.3-13.1-3.9
		c-0.9-6.5-7-7.3-11.3-9.8c-50-28.9-100-57.6-150.1-86.3c-5.4-3.1-11.3-5.5-16.7-8.3c-22.7-11.8-45-24.3-66.8-37.7
		c-20.3-12.4-39.8-26.1-61.3-36.5c-27.8-16.9-55.7-33.5-84.7-48.3c-4-3.4-8.1-7.4-8.7,2.2c-0.2,3.1-0.2,6.3-0.2,9.4
		c-0.1,78.2-0.1,156.4-0.1,234.6c0,119.7,0.2,239.3,0.2,359c0,25.7-0.4,51.4,0,77.1c0.1,6-3.1,14.5,7.1,16.5
		c1.1,0.7,2.1,1.4,3.2,2.1c4,5.3,9.3,8.6,15.8,10c1.9,0.9,3.8,1.7,5.7,2.6c1.4,3.4,4.1,4.3,7.5,4.1c1.3,0.9,2.6,1.7,3.9,2.6
		C1076.3,1434.4,1077,1434.9,1078.4,1434.4z"/>
	<path class="st3" d="M947.3,2948.9c-49.5-28.6-98.9-57.2-148.4-85.7c-38.6-22.2-77.4-44.2-116.1-66.5
		c-36.4-21-72.5-42.2-108.9-63.3c-40.8-23.7-81.7-47.3-122.6-70.9c-31.8-18.4-63.4-37.1-95.4-55.1c-9.1-5.1-9.7-12.4-9.7-21.2
		c0.1-86.7,0.1-173.4,0.1-260.1c0-135.6,0-271.1,0.2-406.7c0-6.3-3.4-13.9,4.1-18.7c5,2.9,10,5.7,15,8.6
		c187.7,107.8,375.4,215.6,563.1,323.4c7.7,4.4,17.6,7.2,22.5,13.7c5.6,7.4,1.2,18.3,1.2,27.6c-0.9,169.8-1.9,339.6-3.1,509.3
		C949,2838.5,948,2893.7,947.3,2948.9z"/>
	<path class="st4" d="M2329,2949c-1.9,1.4-3.8,1.3-5.8,0.2c-38.9-22.7-77.8-45.4-116.6-68.2c-1.8-1-3.2-2.6-4.7-4
		c1.5-7.3-2.6-11.9-7.5-16.2c-14.2-12.5-25.6-27.7-37.9-42c-22.9-26.5-43.6-54.8-66.7-81c-12.8-14.5-25.9-28.8-37.4-44.4
		c-11.3-15.4-28.6-26.1-35.9-44.8c-0.9-2.3-3.3-4.1-5.4-5.7c-21.7-17.8-37.2-41.2-55-62.4c-31.3-37.1-61.8-74.9-93.9-111.3
		c-14.2-16.1-25.9-34.2-40.3-50.1c-29.6-32.5-57-66.8-85-100.6c-3.6-4.3-7.5-7.3-13.3-6.8c-2.6-9.5,2.5-18.7,1.6-27.9
		c-1.4-14,1.2-27.8-0.6-41.8c-3-23,1.1-46.3-1.5-69.4c-0.5-4.6,0-9.5,0.9-14.1c2.7-14.4,2-29.1,0.7-43.3
		c-1.8-19.4-1.7-38.8-1.3-58.1c0.3-17,2.6-34,2.1-51c-0.4-16-2.4-32-2.5-48.1c-0.1-18.7,5.4-37.4,0-56.1c1,0,2.3-0.5,3-0.1
		c35.9,20.7,72.4,40.2,107.3,62.6c0.1,7.5,5.2,12.9,9.6,17.5c12,12.5,21.9,26.6,33.1,39.7c11.1,13,20,28.1,34.5,38.1
		c2.4,1.7,4.1,4.8,5.3,7.6c2.9,6.4,7,11.8,12.4,16.1c13.1,10.5,20.2,26,32.7,37.4c11.4,10.4,20.5,23.6,30.3,35.7
		c8.5,10.6,18.1,20.2,26.4,31c15.6,20.3,31.5,40.4,48.9,59c19.3,20.6,36.1,43.3,54.3,64.8c7.4,8.7,13.6,18.4,21.7,26.5
		c8.1,8.1,17.3,15.8,23.4,25.4c11.3,17.9,27.6,31.4,39.7,48.3c8.3,11.6,19.6,20.4,27.7,32c12.6,18.1,28.9,33,42.1,50.4
		c12.9,17.1,30.5,30.2,41.1,49.3c2.6,4.7,6.5,8.3,12.4,8.4c1.8,17.7,0.7,35.5,0.7,53.3C2329.4,2719.7,2329.2,2834.4,2329,2949z"/>
	<path class="st5" d="M1457,453.3c34.4-20.1,68.8-40.1,103.2-60.2c25.8-15.1,51.8-29.8,77.2-45.5c9.4-5.8,16.8-5.2,26,0.3
		c51.1,30.2,102.4,59.8,153.7,89.6c22.6,13.1,44.6,27.5,67.5,39.9c38.7,21,76.4,43.6,114.7,65.3c60.7,34.4,120.7,69.9,181.1,104.8
		c24.9,14.4,50.4,28,74.5,43.6c-0.2,5.2-4.4,5.9-7.2,7.6c-145.6,83.8-291.3,167.5-437,251.2c-1.8,1-3.8,1.6-5.7,2.4
		c0.6-7.1-0.7-13.8-5.7-19c-18.4-19-37-37.9-52.4-59.4c-7.9-11-15.5-22.2-26.9-30.1c-3-2.1-5.3-5.1-7.7-7.9
		c-11.7-14-21.1-29.6-33.3-43.5c-8.5-9.7-17.6-19.2-25.4-29.8c-8-10.9-16.5-22.1-25.8-31.2c-16.3-15.7-28-35-43.9-50.8
		c-14.9-14.8-26.4-32.5-40.6-47.7c-15.7-16.9-28.8-35.9-44.4-52.8c-13.1-14.2-24.8-29.5-37-44.5c-11.8-14.5-25.3-27.5-36.5-42.6
		c-4.8-6.5-5.9-11.8-2.8-18.7c0.4-1,1.1-1.6,2.2-1.5c2.1,0.5,3.7,0.1,4.4-2.3c0.1-0.9,0.6-1.2,1.4-1c0,0,1-0.2,1-0.2
		s0.3-0.9,0.3-0.9c1-0.7,1.9-1.3,2.9-2c1.9,0.6,3.3,0.1,3.8-2c0.6-0.9,1.5-1.2,2.6-1.1c1.9,0.5,3.2-0.1,3.8-2.1
		c0.2-0.9,0.8-1.2,1.7-1c1.9,0.3,3.8,0.4,4.4-2c0.5-0.9,1.2-1.4,2.3-1.4c0,0,0.8-0.7,0.8-0.7c1-0.8,1.9-1.6,2.9-2.4
		C1456.6,453.6,1457,453.3,1457,453.3z"/>
	<path class="st5" d="M2211.6,1441l-0.9,1.2c0,0-1.4,0-1.5,0c-16-15.7-25.8-36.4-42-52.1c-14.3-13.8-24.5-31.1-37.9-45.9
		c-9.8-10.7-20.6-20.9-28.7-33.1c-18.2-27.5-42.7-49.9-63.2-75.7c-13.5-17.1-27.3-34.3-42.1-50.7c-7.6-8.4-17.5-14.8-23.2-25
		c-3.3-5.9-7.9-10.9-12.5-16.1c-12.8-14.5-25.1-29.4-37.4-44.3c-7.7-9.2-14.9-18.8-22.7-28c-19.3-22.7-39.3-44.8-58-67.9
		c-8.4-10.3-17.7-18.9-28.6-26.2c23.5-15.9,48.7-28.9,73.2-43c120.5-69.5,241.2-138.7,361.8-208c4.5-2.6,9.3-4.6,14-6.9
		c4.4,3.6,3,8.6,3.1,13.2c0.1,15.2,0,30.4,0,45.7c0,203.6,0,407.2,0,610.9c0,8.4,1,16.9-6,23.5c-13,12-29.6,18-44.6,26.7
		C2213.1,1438.8,2212.2,1439.8,2211.6,1441z"/>
	<path class="st4" d="M1064.9,1426.2c-1.9-0.9-3.8-1.7-5.7-2.6c-3.8-5.7-9.1-8.9-15.8-10c-1.1-0.7-2.1-1.4-3.2-2.1
		c-1.4-5-4.5-10.1-4-15c2.3-22.6-1.7-45.4,1.6-67.9c1.8-12.1-2.4-23.9-2.6-35.9c-0.4-25.4,1.8-50.8,0.8-76.3
		c-0.8-20.1,2.2-40.4,1.1-60.3c-1.1-21.1,1.3-42.3-1.7-63.4c-2.6-18.6,4.4-37.3,0.1-56.1c-0.4-1.6,1.4-3.7,2.2-5.6
		c7.2,3.2,9.4,10.9,14.4,16.2c12.5,13.3,24,27.5,35.8,41.5c11.1,13.2,21,27.5,33.4,39.4c19.3,18.6,34.7,40.4,51.7,60.8
		c28.1,33.6,55.9,67.6,84.6,100.7c22.5,26,43.9,52.9,66.5,78.8c23.3,26.7,45.6,54.4,68.6,81.4c25.7,30.2,50.3,61.4,76.9,90.9
		c8,8.9,17.1,17.1,23.9,27c15.7,22.7,35.7,41.7,53,63c21,25.9,42.3,51.4,64,76.6c6.4,7.4,14.3,13.9,18.8,23
		c2.2,4.4,6.8,4.4,11.1,4.3c0,7.3,0,14.6,0,21.7c-0.5,0.5-0.9,0.9-1.3,1.1c-0.5,0.2-1.1,0.5-1.5,0.3c-2-0.7-3.9-1.5-5.8-2.4
		c-3.3-1.6-6.6-3.3-9.7-5.2C1444.1,1647,1266,1543.7,1088,1440.5c-1.2-3.5-3.6-5.4-7.5-4.8c-1,0.1-1.7-0.4-2-1.3
		c0-1.5-0.8-2-2.2-1.5c-1.3-0.9-2.6-1.7-3.8-2.5C1071.9,1425.3,1068.6,1425.5,1064.9,1426.2z"/>
	<path class="st3" d="M2293.6,1559.8c11.7-11,26.9-16.2,40.1-24.7c4.3-2.8,7.8-0.5,11.6,1.7c19.6,11.3,39.3,22.2,58.9,33.5
		c40.9,23.6,81.8,47.2,122.6,70.9c29,16.9,57.8,34.1,86.8,50.9c35.4,20.6,70.9,40.9,106.3,61.3c38.2,22,76.4,43.9,114.6,65.9
		c31.8,18.3,63.6,36.7,95.4,55.1c4.5,2.6,8.7,5.8,13,8.7c-1.3,0.9-2.5,2-3.8,2.7c-76.5,43.9-153,87.9-229.5,131.7
		c-5.8,3.3-11.7,6.6-18.4,7.7c-3.4-9.4-8.5-17.5-15-25.3c-8.8-10.5-21.3-18.1-27.6-29.9c-11.9-22.2-31.1-37.9-46.1-57.2
		c-18.6-23.8-38.3-46.8-57.7-70c-14.1-16.8-28.2-33.6-42.9-49.8c-16.5-18.2-30.8-38.2-48.1-55.8c-7.1-7.2-14.6-14.9-20.6-23.5
		c-17.3-24.9-39-46.2-58.1-69.6c-14.5-17.8-29.1-35.5-44.3-52.7C2319.8,1579.3,2312.9,1562.2,2293.6,1559.8z"/>
	<path class="st6" d="M1640.2,1444.6c1.2,56.8,1.2,113.5,0.2,170.3c-1.8-0.9-4.4-1.3-5.4-2.7c-10.2-14.6-22.2-27.8-33.2-41.7
		c-19.8-25-41.1-48.6-61.4-73.1c-19-22.9-39.6-44.5-57.8-68c-29.5-38-62.4-73-92.5-110.4c-24.8-30.9-52.5-59.6-77.1-90.7
		c-26.9-34-56.8-65.5-84-99.2c-13.8-17-27.7-34-41.7-50.9c-11.7-14.1-23-28.5-35.5-41.8c-15.8-16.8-29.8-35-44.7-52.5
		c-20-23.4-40.9-46.1-59.4-70.7c-2.3-3-5.5-4.8-9.5-4.9c1.4-9.5-4.8-18.7-2.7-27.8c4.9-21.4-0.6-42.5-0.2-63.7
		c0.1-3.7-0.2-7.4,0.3-11c2.2-14.2,0.9-28.4,0.3-42.7c0.3-0.3,0.9-0.6,0.9-0.8c-0.2-0.7-0.6-1.3-0.9-2c-0.5-3.6-1.2-7.2,2.4-9.7
		c3.7,0.2,8.1-0.5,10.1,3c6.2,10.6,17,17.2,23.7,27.2c16.2,23.8,36.7,44.2,54.9,66.4c18.9,23,38.8,45.2,57.9,68.1
		c24.5,29.2,47.5,59.7,73.2,87.8c26.8,29.4,50,61.7,77,90.9c25.2,27.2,45.3,58.8,72.4,84.5c2.3,2.1,4.1,4.8,5.9,7.3
		c16.3,22.5,34.5,43.4,53.2,63.7c15.3,16.6,28.2,35,43.4,51.6c20.4,22.3,38.9,46.4,58.3,69.7c15.4,18.5,30.3,37.3,46.4,55.1
		C1621.7,1433.4,1627,1444.7,1640.2,1444.6z"/>
	<path class="st3" d="M1296.9,2763.4c-17.9,13.8-38.5,23.3-57.8,34.7c-41,24.3-82.3,48-123.6,71.8c-38.1,22-76.1,44-114.5,65.6
		c-9.5,5.4-17.9,12.9-28.6,16.1c-0.2-6.3-0.5-12.6-0.5-18.9c1-175.4,2.1-350.9,3.2-526.3c0-4.2,0.5-8.4,0.7-12.5
		c5.9-0.7,9.6,2.8,13.6,6.4c20.7,18,36.5,40.5,53.2,61.6c17.8,22.6,37.2,43.7,55.5,65.8c14.6,17.7,28.4,36,44.8,52.4
		c18.4,18.4,31.2,41.8,50.8,59.4c1.5,1.4,3.1,3,4,4.8c8.7,17.1,23.8,29,35.5,43.7C1253.8,2713.7,1275.7,2738.3,1296.9,2763.4z"/>
	<path class="st7" d="M1129.2,1630c1.3,0.6,2.7,1.2,4,1.8c0.2,4.8,3.4,5.3,7.2,4.9c1,0.4,1.9,0.8,2.9,1.2c0.4,1.7,1.5,2.1,3.1,1.8
		c1.2,0.7,2.3,1.4,3.5,2.2c0,0,0.2,0.8,0.2,0.8l0.8,0c1-0.3,1.6,0.1,1.9,1c0.6,2.7,2.5,2.8,4.6,2.2c30,16.9,60.4,33.1,89.2,52
		c-1.5,8.3,3.1,13.7,8.7,18.9c29.6,28,53.6,60.9,78.7,92.8c5.2,6.6,12,11.3,16.9,18.2c9.5,12.9,19.4,25.9,30.8,37.1
		c20.3,19.8,36,43.3,54.4,64.5c5.1,5.8,7.3,14,14.6,18c-4.9,3.1-9.7,6.2-14.6,9.1c-12.1,7-25.4,12.2-36.8,19.7
		c-26.7,17.6-54.9,32.4-82.7,48c-0.9-4.4-4.1-7.2-6.9-10.3c-19.5-21.2-37.7-43.4-56.6-65c-11.1-12.6-19.4-27.3-31.6-38.9
		c-17.9-17-32.5-37-48.1-55.8c-19.7-23.7-40.8-46.3-59.3-70.9c-8.3-11-18.3-20.1-27-30.6c-13.3-16.1-26.4-32.4-39.8-48.4
		c-16-19.3-32.2-38.4-48.4-57.5c-12.8-15.2-25.2-30.7-38.8-45.2c-8.7-9.2-16-19.4-24.2-28.8c-4.3-5-8.5-10.8-8.5-18.2
		c8.6-8.9,20.7-12,30.7-18.5c4.2-2.7,7.8-0.9,11.6,1.3c16.3,9.4,32.9,18.3,49.2,27.7c25.8,15,51.4,30.2,77.1,45.3
		c0,0,0.4,0.8,0.4,0.8l0.9,0c1.1-0.1,1.7,0.3,2,1.4c0.1,1.4,0.8,1.9,2.1,1.5c1.4,1,2.8,2,4.2,3c0,0,0.8,0.5,0.8,0.5
		c1.8,0.8,3.6,1.6,5.5,2.4c0,0,0.3,0.7,0.3,0.7l0.8,0c0.9-0.3,1.4,0,1.7,0.9c0.3,7.4,5.5,5.9,10.1,5.6c1.1,0.7,2.1,1.4,3.2,2
		c0,0,0.4,0.9,0.4,0.9L1129.2,1630z"/>
	<path class="st7" d="M1038.2,908.2c4,0.1,7.2,1.9,9.5,4.9c18.5,24.6,39.5,47.3,59.4,70.7c14.9,17.5,28.9,35.7,44.7,52.5
		c12.5,13.3,23.8,27.7,35.5,41.8c14,16.9,27.9,33.8,41.7,50.9c27.2,33.7,57.1,65.2,84,99.2c24.6,31.1,52.3,59.8,77.1,90.7
		c30.1,37.5,63.1,72.4,92.5,110.4c18.2,23.5,38.8,45.1,57.8,68c20.3,24.5,41.7,48.1,61.4,73.1c11,13.9,22.9,27.1,33.2,41.7
		c1,1.4,3.6,1.8,5.4,2.7c0.9,40,1.2,79.9,0,119.9c-4.3,0-8.9,0.1-11.1-4.3c-4.5-9.1-12.4-15.6-18.8-23c-21.7-25.2-43-50.7-64-76.6
		c-17.2-21.3-37.3-40.2-53-63c-6.8-9.8-15.8-18.1-23.9-27c-26.6-29.5-51.2-60.7-76.9-90.9c-23-27-45.3-54.7-68.6-81.4
		c-22.6-25.9-44-52.8-66.5-78.8c-28.7-33.1-56.5-67.1-84.6-100.7c-17-20.3-32.4-42.2-51.7-60.8c-12.3-11.9-22.3-26.2-33.4-39.4
		c-11.8-14-23.3-28.2-35.8-41.5c-5-5.3-7.2-13-14.4-16.2c1-19.5-1.1-39-0.4-58.6C1038.2,951.2,1037.6,929.7,1038.2,908.2z"/>
	<path class="st8" d="M1813,977.1c10.9,7.2,20.3,15.8,28.6,26.2c18.7,23.1,38.7,45.3,58,67.9c7.8,9.1,15,18.7,22.7,28
		c12.3,14.9,24.6,29.9,37.4,44.3c4.5,5.1,9.2,10.2,12.5,16.1c5.7,10.3,15.6,16.6,23.2,25c14.7,16.3,28.5,33.6,42.1,50.7
		c20.4,25.8,44.9,48.2,63.2,75.7c8.1,12.3,18.9,22.4,28.7,33.1c13.4,14.8,23.7,32.1,37.9,45.9c16.3,15.7,26,36.4,42,52.1
		c-25.9,15.3-51.6,30.9-77.8,45.7c-9.9,5.6-18.6,13.4-29.9,16.5c-0.2-6-2-11.5-5.8-16c-18.5-22-36.4-44.6-56.1-65.5
		c-23-24.4-43.8-50.8-65-76.5c-30.8-37.5-64.7-72.5-94.1-111.2c-13.3-17.5-28.1-33.7-42.7-50.2c-16.6-18.7-30.2-40.2-47.4-58.4
		c-23.4-24.8-42.8-52.9-66.8-77.1c-4.6-4.6-7-10.4-7.8-16.9C1747.8,1013.3,1779.9,994.3,1813,977.1z"/>
	<path class="st8" d="M2293.6,1559.8c19.3,2.4,26.2,19.5,37,31.7c15.2,17.2,29.8,34.9,44.3,52.7c19.1,23.5,40.8,44.8,58.1,69.6
		c6,8.6,13.4,16.3,20.6,23.5c17.3,17.6,31.6,37.6,48.1,55.8c14.7,16.2,28.8,33,42.9,49.8c19.4,23.2,39.2,46.1,57.7,70
		c15,19.3,34.3,35,46.1,57.2c6.3,11.8,18.8,19.5,27.6,29.9c6.6,7.8,11.7,15.9,15,25.3c-30.6,22.8-64.8,39.4-97.8,58.1
		c-19.4-17-32.7-39.2-50.1-58c-13.8-14.9-26-31.4-39.1-46.9c-18.9-22.4-38.1-44.5-57-66.9c-9.5-11.2-17.7-23.5-28.1-33.7
		c-23.2-22.9-42.2-49.4-62.8-74.3c-16.9-20.5-35.3-39.9-51.4-61.2c-25.5-33.7-55.4-64-82.4-96.7c-8.2-10-18.9-18.4-23.9-31
		c12.9-11.8,29.3-18.3,44.2-26.8C2259.6,1578.3,2275.1,1566.3,2293.6,1559.8z"/>
	<path class="st9" d="M1126.6,760.9c21.5,10.3,41,24,61.3,36.5c21.8,13.4,44.1,25.9,66.8,37.7c5.4,2.8,11.3,5.2,16.7,8.3
		c50.1,28.6,100.2,57.4,150.1,86.3c4.3,2.5,10.4,3.3,11.3,9.8c-1.6,9,4.3,15.4,9.4,20.6c10,10,18.7,21.2,27.5,32
		c10.2,12.5,22.1,23.5,31.6,36.6c10.7,14.7,22.5,28.6,34.8,42.1c14.1,15.3,27,31.7,40.6,47.5c17,19.7,32.3,40.9,50.7,59.3
		c3.6,3.6,6.6,8.3,12.6,8.6c0.3,44.8,0.6,89.7,0.7,134.5c0.1,17.2-0.3,34.4-0.5,51.6c-6-0.1-9-5-12.7-8.5
		c-12.7-11.8-21.6-26.8-33.2-39.6c-15-16.7-29.6-33.8-44-51c-13.1-15.6-25.6-31.7-38.7-47.2c-20.3-23.9-41.1-47.4-61.3-71.3
		c-20.6-24.3-40.7-49-61.2-73.3c-19.2-22.8-39.3-44.8-57.9-68c-20.2-25.3-42.6-48.8-62.6-74.3c-17.4-22.2-36.4-43.1-54.6-64.7
		c-21.9-25.9-44.3-51.5-65.3-78.1C1140.3,785.1,1126.9,776.9,1126.6,760.9z"/>
	<path class="st10" d="M1533.5,2626.4c-26.2,15.7-52.4,31.4-78.7,47.1c-1.7,1-3.9,1.3-5.9,2c-4.7-11.9-13.8-20.6-21.9-30.1
		c-14.6-17.1-29.9-33.6-43.8-51.2c-19.4-24.6-40.3-48-60.2-72.2c-10.3-12.5-21.9-23.8-31.7-36.8c-11.9-15.8-25.7-30.3-38.4-45.5
		c-14.1-16.8-27.5-34.2-42.2-50.5c-13.3-14.8-25.4-30.6-38.3-45.6c-14.6-17.1-29.6-33.8-44.1-51c-20.6-24.3-40.7-49-61.3-73.3
		c-4.5-5.3-8.9-10.4-9.7-17.5c2.8-4.1,7.8-5,11.6-7.2c24.1-14.2,47.9-28.9,73.1-41.3c7.1,10.3,15.1,19.9,23.6,29.2
		c14.5,15.8,28.1,32.4,41.6,48.9c24.2,29.4,48.6,58.7,73.3,87.7c14.2,16.7,29.2,32.8,43,49.9c26.6,32.9,52.7,66.1,81.7,97
		c1.4,1.5,2.9,3.1,4.1,4.8c16,23.3,35.6,43.8,54,65c21.2,24.5,39.7,51.3,63.2,73.8C1531.1,2613.9,1533.7,2619.7,1533.5,2626.4z"/>
	<path class="st7" d="M1723.6,2311.8c5.9-0.5,9.8,2.5,13.3,6.8c28,33.8,55.5,68.1,85,100.6c14.4,15.9,26.1,33.9,40.3,50.1
		c32.1,36.4,62.5,74.3,93.9,111.3c17.8,21.1,33.3,44.6,55,62.4c2,1.7,4.5,3.4,5.4,5.7c7.3,18.7,24.5,29.4,35.9,44.8
		c11.5,15.6,24.6,29.8,37.4,44.4c23.1,26.3,43.9,54.5,66.7,81c12.3,14.2,23.7,29.4,37.9,42c4.9,4.3,9,9,7.5,16.2
		c-17.8-5.3-32.2-17.1-48.1-25.9c-43.6-24-86.4-49.5-129.4-74.6c-14.9-8.7-29.4-17.8-44.1-26.8c-0.2-1.9-1.3-2.1-2.9-1.8
		c-1-0.7-2-1.4-3-2.1c-0.5-1.5-1.6-2-3.1-1.7c-1.1-0.6-2.2-1.1-3.2-1.7c-0.8-7-6.2-4.3-10.1-4.8c-1.1,0.2-1.9-0.2-2.4-1.2
		c-0.1-1.1-0.8-1.6-1.9-1.6l-0.9-0.1c0,0-0.3-0.9-0.3-0.9c-0.4-2.2-2-2.7-4-2.6c-1.1,0.2-1.9-0.2-2.3-1.1c-0.1-1.1-0.8-1.6-1.9-1.5
		l-1-0.1c0,0-0.2-0.9-0.2-0.9c0.2-2.2-0.3-4.6-2.3-5.4c-16-5.8-26.4-17.8-35.9-31.1c-10-14-21.9-26.6-32.3-40.2
		c-13.4-17.4-28.3-33.5-42.5-50c-15-17.4-29.3-35.4-44.7-52.4c-17.9-19.6-33.5-41.3-52-60.5c-5.1-5.3-7.6-10.6-7.4-18.1
		c0.5-23.3-0.7-46.6-0.2-70C1726.1,2370.7,1724.3,2341.2,1723.6,2311.8z"/>
	<path class="st11" d="M1691.1,1017.8c-10.8,6.1-20,16.1-32.8,17.1c-12.2,0.9-20.8-9-30.7-14.6c-46.3-26.5-92.2-53.6-138.3-80.4
		c0.5-10-5.3-16.6-11.9-22.9c-24.4-23-42.7-51.4-65.5-75.9c-16.3-17.6-31-36.6-46.4-55c-18.2-21.5-36.4-43-54.5-64.6
		c-15.5-18.3-30.7-36.8-46.3-55.1c-13.8-16.3-28.1-32.3-41.8-48.8c-5.4-6.4-9.5-13.9-8.5-22.9c21.9-16.6,46.7-28.5,70.3-42.1
		c6-3.5,10.4-10.3,18.5-10c-0.9,7.3,1.8,12.8,7,18.2c9.4,9.8,19.1,19.6,26.6,30.8c15.2,22.7,34,42.4,52,62.6
		c20.9,23.4,39.6,48.6,60.7,71.7c21.8,23.9,42.3,49,62.2,74.4c13.2,16.9,29.3,31.1,42.1,48.2c8.4,11.3,17.5,22,26.7,32.7
		c14.9,17.4,31.4,33.7,45,52.2c18.7,25.3,40.3,47.9,60.3,72C1688.9,1009.1,1691.7,1012.6,1691.1,1017.8z"/>
	<path class="st11" d="M2198.6,1614.7c5,12.6,15.6,21,23.9,31c26.9,32.7,56.9,63,82.4,96.7c16.2,21.3,34.5,40.7,51.4,61.2
		c20.6,24.9,39.6,51.5,62.8,74.3c10.4,10.2,18.6,22.5,28.1,33.7c18.9,22.3,38.1,44.5,57,66.9c13.1,15.6,25.3,32,39.1,46.9
		c17.4,18.8,30.7,41,50.1,58c-27.3,16.2-54.1,33.3-83,46.9c-6.5-2.8-11.4-7.8-15.4-13.2c-29.1-39.7-64.4-74.2-94.6-112.9
		c-13.2-16.9-28.7-32-41.7-48.9c-19.7-25.8-41.8-49.4-62.5-74.4c-12.6-15.3-25.4-30.5-38.5-45.5c-20-22.8-38-47.2-58.2-69.7
		c-21-23.3-39.8-48.4-60.9-71.8c-8.5-9.4-18.7-18.6-22-32C2143.4,1645.2,2170,1628.3,2198.6,1614.7z"/>
	<path class="st11" d="M1715.9,1032.6c0.7,6.5,3.2,12.3,7.8,16.9c24,24.1,43.4,52.3,66.8,77.1c17.2,18.1,30.7,39.7,47.4,58.4
		c14.6,16.4,29.5,32.6,42.7,50.2c29.4,38.8,63.2,73.7,94.1,111.2c21.2,25.8,42,52.1,65,76.5c19.7,20.9,37.6,43.5,56.1,65.5
		c3.8,4.5,5.6,10,5.8,16c-26.2,16.2-52.1,32.9-80.3,45.6c-8.3-8.7-17.9-16.5-24.8-26.2c-17.9-25.3-40.5-46.5-59.2-71.1
		c-13.3-17.5-28.2-33.7-42.7-50.2c-14.8-16.8-28.5-34.7-42.9-51.9c-8.7-10.4-18.2-20.1-26.4-31c-11.9-15.8-25.4-30.6-38.3-45.6
		c-14.3-16.7-29.2-32.9-43.1-49.9c-21.9-26.7-43.4-53.6-66.5-79.3c-3.4-3.8-6.2-6.9-11.6-6.2c-1.5-22.9-0.6-45.8-0.7-68.6
		c0-7.4,1.9-14.2,9.2-16.4C1689.6,1049.1,1701.5,1038.4,1715.9,1032.6z"/>
	<path class="st10" d="M2852.1,2660.8c-1.5,0.5-3,1-4.5,1.5c-0.7-0.4-1.4-0.7-2.1-1c-10.2-22.2-28.6-38.3-43.8-56.5
		c-15-18-30.4-35.9-45.3-53.9c-16-19.3-33.2-37.5-48.9-56.9c-13.1-16.2-27-31.8-40.5-47.7c-15.5-18.3-30.9-36.7-46.3-55
		c-14.1-16.7-28.7-33.2-42.3-50.3c-16.5-20.9-34.3-40.6-51-61.3c-21.2-26.4-44.3-51.3-65.1-78.1c-2.7-3.4-4.9-6.7-5.1-11.2
		c26.9-16.4,54-32.5,82.1-46.9c2.9,11.1,11,18.7,18.1,26.9c14.7,17,29.5,33.9,44.1,51.1c20.2,23.9,40.2,48.1,60.3,72.2
		c14.4,17.3,28.7,34.6,43.1,51.8c12.4,14.8,23.9,30.6,37.6,44.1c17.2,17,31.3,36.7,46.9,54.9c25.4,29.8,51,59.5,75.4,90.2
		c15,18.8,32.6,35.3,46.6,55c6.4,9,13.8,19,27.1,19.7c-21.6,15-44.5,27.9-68.1,39.5c-4.9,2.4-8.4,7.9-14.7,7.4
		C2852.9,2656.6,2852.1,2658.4,2852.1,2660.8z"/>
	<path class="st8" d="M1296.9,2763.4c-21.2-25.1-43.1-49.6-63.5-75.4c-11.6-14.7-26.8-26.6-35.5-43.7c-0.9-1.8-2.5-3.4-4-4.8
		c-19.6-17.6-32.4-41.1-50.8-59.4c-16.4-16.4-30.1-34.7-44.8-52.4c-18.3-22.1-37.7-43.2-55.5-65.8c-16.7-21.2-32.6-43.6-53.2-61.6
		c-4.1-3.6-7.8-7.1-13.6-6.4c-0.9-44.5-0.6-89.1,0.4-133.6c0.2-10.8,3.6-18.2,14.7-20.8c1.8,7.9,7.5,13.5,11.9,19.9
		c8.6,12.6,20.2,22.5,29.7,34.4c19.2,24.1,38.9,47.8,59.7,70.6c8.8,9.6,16.8,20,25.1,30c12.3,14.9,23.8,30.6,37.2,44.4
		c15.7,16.2,28.9,34.4,43.4,51.6c14.5,17.1,28.7,34.5,43.4,51.5c15,17.4,30.7,34.3,44.9,52.3c24.6,31.2,51.1,60.7,76.5,91.2
		c7.6,9.1,17.2,17.2,16.7,30.8C1352.3,2732.5,1325.7,2749.7,1296.9,2763.4z"/>
	<path class="st12" d="M991,2239.5c-11.1,2.6-14.4,10-14.7,20.8c-1,44.5-1.3,89.1-0.4,133.6c-0.3,4.2-0.7,8.4-0.7,12.5
		c-1.1,175.4-2.1,350.9-3.2,526.3c0,6.3,0.3,12.6,0.5,18.9c-0.2,20.5-0.2,41-0.5,61.4c-0.2,11.1-1.3,11.9-13.4,11.7
		c-10.7-0.2-11.7-0.8-11.8-11.7c-0.1-21.4,0.3-42.8,0.4-64.1c0.7-55.2,1.6-110.4,2-165.5c1.2-169.8,2.2-339.6,3.1-509.3
		c0-9.3,4.4-20.2-1.2-27.6c-4.9-6.5-14.8-9.3-22.5-13.7c-187.7-107.8-375.4-215.6-563.1-323.4c-5-2.9-10-5.7-15-8.6
		c-2.9-4.1-3.8-8.4-2-13.4c3.1-8.9,5.6-10.1,16.3-7.4c2.8,4.1,7.4,5.7,11.5,8.1c78.3,45,156.6,90.1,235,134.9
		c25.5,14.6,50.3,30.4,76.8,43.1c1.2,1,2.2,2.2,3.5,3c78.7,45.2,157.5,90.3,236.2,135.4c9.4,5.5,18.9,10.9,28.2,16.6
		c4.9,3,9.3,3.4,14.5,0.3c20.3-12,42.5-20.7,61.7-34.7c6.5-0.7,10.8-5.8,16.1-8.6c19.1-10.4,38.7-20.3,56.5-33
		c24-11.7,46.9-25.5,69.6-39.5c3.7-2.5,7.1-5.6,11.1-7.4c21.8-9.5,42-21.9,61.9-34.8c23.7-11.8,46.6-25.1,69-39.2
		c27.8-15.6,56-30.4,82.7-48c11.4-7.5,24.8-12.7,36.8-19.7c5-2.9,9.8-6.1,14.6-9.1c36.7-20.7,73.4-41.4,110-62.2
		c1.7-1,2.8-3.1,4.1-4.6c3.9-1.6,7.7-3.2,11.6-4.7c9.7-3.8,18.9,2.4,19.2,12.8c0.1,3.1-1.7,4.8-4,6.2c-3.9,2.5-8.8,3.6-11.8,7.6
		c-1.7,0.8-4.2,0-5,2.6c-29.5,16.7-59.2,33.2-88.6,50.2c-18,10.4-36.8,19.6-53.8,31.8c-26.1,13.1-51.4,27.7-76,43.4
		c-28.2,14.3-55.3,30.3-82.1,46.9c-25.8,13.1-50.6,27.8-75.2,42.9c-19.6,10-38.9,20.8-57.3,33c-25.1,12.4-49,27.1-73.1,41.3
		c-3.8,2.3-8.8,3.2-11.6,7.2C1034.3,2212.8,1012.8,2226.3,991,2239.5z"/>
	<path class="st13" d="M1422.2,474.2c-3.1,6.8-2,12.2,2.8,18.7c11.2,15.1,24.7,28.1,36.5,42.6c12.2,15,23.9,30.3,37,44.5
		c15.6,16.9,28.7,35.9,44.4,52.8c14.2,15.3,25.8,32.9,40.6,47.7c15.8,15.8,27.6,35,43.9,50.8c9.4,9,17.9,20.3,25.8,31.2
		c7.8,10.6,16.8,20.1,25.4,29.8c12.2,13.8,21.6,29.5,33.3,43.5c2.4,2.8,4.7,5.8,7.7,7.9c11.4,7.9,19,19.1,26.9,30.1
		c15.5,21.6,34.1,40.4,52.4,59.4c5,5.2,6.3,11.9,5.7,19c-23.5,15-47.5,29.1-72.4,41.5c-0.1-7.3-5.8-11-10.3-15.1
		c-19.5-17.7-33.9-39.7-51.5-59.1c-21-23.2-40.4-47.8-60.4-71.9c-13.3-16.1-26.4-32.4-40.5-47.8c-15.5-16.9-29.6-35.1-44.3-52.7
		c-9-10.8-18.1-21.6-27.1-32.5c-10.3-12.5-19.3-26.3-30.8-37.5c-18.4-18-33.3-38.9-50.3-58.1c-24.3-27.3-46-56.8-71.5-83.1
		c-3.8-3.9-5.7-8.7-8.2-13.3C1365.3,506,1392.6,488,1422.2,474.2z"/>
	<path class="st11" d="M1032.3,2186.5c-19.2,14-41.3,22.7-61.7,34.7c-5.2,3.1-9.6,2.7-14.5-0.3c-9.3-5.6-18.8-11.1-28.2-16.6
		c-0.2-4.7,0.5-9.4-2.9-13.5c-23.3-27.5-46.1-55.5-70.1-82.5c-14.6-16.4-27.8-34-42.5-50.4c-17.8-19.8-32.7-42.2-50.8-61.7
		c-27.1-29.2-50-61.8-77.1-91c-21.6-23.2-40.3-49.1-61.3-72.9c-19.7-22.4-39-45.1-57.2-68.8c8.1-9.4,20-12.8,30.1-19
		c14.6-9,28.9-18.7,44.9-25.1c8.9,12.9,19.4,24.6,28.9,37c8.3,10.9,18.5,19.9,27,30.6c19.1,24.1,38.8,47.8,59.2,70.9
		c15.9,18,31.1,36.6,46.5,55c11.4,13.6,23.4,26.8,33.7,41.2c9.8,13.7,22.8,24.4,33,37.8c15.5,20.3,32.1,39.9,48.8,59.2
		c16.8,19.3,34.8,37.5,49.6,58.6c6.6,9.4,14.5,17.9,22.5,26.1C1005.5,2151.8,1018.6,2169.4,1032.3,2186.5z"/>
	<path class="st12" d="M2539.3,2143.5c-28.1,14.4-55.2,30.4-82.1,46.9c-22.5,11.9-44.6,24.4-66.2,38c-10.1,4.5-19.3,10.5-28.6,16.3
		c-4.8,3-7.5,6.2-7.7,12.3c-0.8,23.6-1.3,47.1-0.1,70.7c-1,43.1-1.3,86.2-0.1,129.3c-1.1,47.3-1.3,94.6-0.2,141.9
		c-0.2,5.8-0.7,11.5-0.7,17.3c-0.2,87.8-0.3,175.5-0.3,263.3c0,23.1,0.3,46.2,0.5,69.3c-1.7,12.9-1.9,11.5-13.8,13.2
		c-12.8,1.8-8.4-7.8-10.9-13c0.2-114.7,0.4-229.3,0.5-344c0-17.8,1.1-35.6-0.7-53.3c2.1-5,1.1-10.3,1.1-15.5
		c0.2-41.7,0.3-83.5,0.3-125.2c0-6.7,1-13.6-1-20.2c0.4-3.1,1-6.2,1.1-9.3c0.7-42.5-1-84.9,1.3-127.4c0.3-6-1.7-8.5-7.4-9.5
		c-6.3-1.2-11.5-4.8-17-8c-63.5-36.7-127-73.3-190.6-109.9c-4.9-2.8-9.5-6.7-15.3-7.7c-2.1-1.5-4-3.3-6.2-4.6
		c-84.4-48.7-168.9-97.5-253.4-146.1c-2.7-1.5-5.7-2.6-8.5-3.8c-34.9-22.4-71.4-41.9-107.3-62.6c-0.7-0.4-2,0-3,0.1
		c-0.7-0.8-1.5-1.5-2.2-2.3c-7.6-8,0.1-13.4,3.6-19.1c4.1-6.8,9.4-0.4,14.1-0.5c3.4,2.4,6.7,5,10.3,7
		c66.2,38.4,132.4,76.8,198.8,115c19.5,11.2,39.3,21.7,59,32.5c3.3,4.3,8.5,6,12.9,8.5c44.4,25.7,88.9,51.1,133.2,76.8
		c18.4,10.7,36.6,21.9,55.9,31.1c43.1,25.5,86.2,51,129.1,76.7c4.5,2.7,7.8,1.5,11.3-1.2c6.8-5.3,13.6-10.7,20.4-16
		c25.8-10.7,48.9-26.2,72.6-40.7c24.1-11.1,45.8-26.3,68.5-39.7c28.8-13.5,55.6-30.7,83-46.9c33-18.7,67.2-35.3,97.8-58.1
		c6.7-1.2,12.6-4.4,18.4-7.7c76.5-43.9,153-87.8,229.5-131.7c1.4-0.8,2.6-1.8,3.8-2.7c13-4.6,13.9-4.4,18.6,4.5
		c4.7,8.9,4.7,8.9-6.4,17.9c-1,0.8-1.9,1.5-2.9,2.3c-5.1-0.1-8.7,3.3-12.7,5.6c-45.1,25.8-90.3,51.5-135.2,77.6
		c-26.3,15.2-53.3,29.2-78.7,46c-26.1,13.1-51.1,28-75.9,43.2c-20.2,11.1-40.6,21.7-59.9,34.3
		C2572.4,2123.3,2555.4,2132.7,2539.3,2143.5z"/>
	<path class="st10" d="M1032.3,2186.5c-13.7-17.1-26.8-34.7-42.1-50.5c-8-8.3-15.9-16.8-22.5-26.1c-14.8-21-32.8-39.3-49.6-58.6
		c-16.8-19.3-33.4-38.8-48.8-59.2c-10.2-13.4-23.2-24.1-33-37.8c-10.3-14.4-22.3-27.6-33.7-41.2c-15.4-18.4-30.6-37-46.5-55
		c-20.4-23.1-40-46.8-59.2-70.9c-8.4-10.7-18.6-19.7-27-30.6c-9.5-12.4-20-24.1-28.9-37c23.9-15.9,48.7-30.4,74.7-42.6
		c0.9,4.6,1.5,9,4.8,13c22.4,26.3,44,53.1,66.8,79c14.8,16.9,29.6,34,43.7,51.4c19.1,23.6,39.3,46.1,58.4,69.6
		c18.7,23.1,38.8,45.2,58,68c24.5,29.2,48.3,59,72.9,88.1c27.9,33.1,56.4,65.9,84.6,98.8c-17.8,12.7-37.4,22.5-56.5,33
		C1043.1,2180.7,1038.8,2185.8,1032.3,2186.5z"/>
	<path class="st9" d="M1104.9,2144.9c-28.2-32.9-56.6-65.6-84.6-98.8c-24.6-29.2-48.4-58.9-72.9-88.1c-19.1-22.8-39.2-44.9-58-68
		c-19.1-23.5-39.3-46.1-58.4-69.6c-14.1-17.4-28.8-34.5-43.7-51.4c-22.8-25.9-44.4-52.7-66.8-79c-3.4-4-4-8.4-4.8-13
		c4.2-6.6,11.7-8.8,18-12c17.5-9,32.6-22.4,51.8-28.2c0.5,3.8,2.7,6.6,4.9,9.6c24.2,32.2,51.7,61.6,77.2,92.7
		c13.9,17,28.7,33.2,42.9,49.9c15.9,18.7,31.6,37.5,47.4,56.3c9.1,10.8,17.6,22,27.3,32.3c11.8,12.6,21.1,27.3,32.6,40.2
		c16.7,18.7,34.4,36.7,49.6,56.6c23.8,31.2,51.5,59.1,75.1,90.4c10.4,13.7,24.4,24.6,31.8,40.6
		C1151.7,2119.4,1128.9,2133.2,1104.9,2144.9z"/>
	<path class="st9" d="M2441.8,2169.9c-23.7,14.5-46.8,29.9-72.6,40.7c-0.6-5.4-2.8-10.3-6.7-13.9c-8-7.6-15.3-15.9-21.4-25
		c-8.9-13.2-21.7-22.8-31.2-35.3c-13.6-18-28.7-34.5-43.3-51.6c-14.5-17.1-28.9-34.4-43.2-51.7c-22-26.5-43.9-53.2-66.1-79.6
		c-14.5-17.2-29.7-33.7-44.2-50.9c-19.5-23.2-37.7-47.5-58.1-69.9c-21.2-23.2-39.6-48.6-61.2-71.5c-5.3-5.7-8.7-13.1-15.8-17.2
		c0-0.8-0.2-1.6-0.4-2.4c0.3-1,1-1.3,1.9-1c4.8,0.9,8.6,0,10.2-5.2c0.5-1.1,1.4-1.5,2.5-1.2c2.3,0.7,3.6-0.3,4.2-2.4
		c0,0,0.7-0.5,0.7-0.5c0.7-0.6,1.5-1.3,2.2-1.9c0.4-1,1.1-1.4,2.2-1.3c2.1,0.5,3.6-0.2,4.5-2.2c15-9.9,29.7-20.3,46.9-26.4
		c0.2,6.7,4.1,11.4,8.3,16.3c15,17.3,29.5,35.2,44.2,52.8c12.4,14.8,24.9,29.5,37.3,44.3c14.5,17.1,28.7,34.5,43.5,51.3
		c13.5,15.3,25.8,31.5,39.1,46.8c16.5,18.9,33.6,37.4,49.2,56.8c24.9,30.9,51.2,60.5,76.4,91.2c12.6,15.3,25.1,30.7,38.5,45.4
		c16.2,17.7,29.1,38.2,46.3,55.1C2438.9,2162.3,2441.9,2165.2,2441.8,2169.9z"/>
	<path class="st14" d="M1174.5,2105.4c-7.4-16-21.5-26.9-31.8-40.6c-23.6-31.2-51.3-59.2-75.1-90.4c-15.2-19.9-32.9-37.9-49.6-56.6
		c-11.5-12.9-20.7-27.5-32.6-40.2c-9.6-10.3-18.2-21.5-27.3-32.3c-15.8-18.8-31.5-37.6-47.4-56.3c-14.2-16.7-29-33-42.9-49.9
		c-25.5-31.1-53-60.5-77.2-92.7c-2.3-3-4.5-5.8-4.9-9.6c20.8-14.8,42.7-28,66.2-38.3c2.5,0.7,5,1.4,6.6,3.9
		c6.6,10.8,16.4,19.1,23.9,29c7.9,10.5,17.5,19.4,25.3,29.9c12.2,16.3,25.8,31.6,39.5,46.6c10.2,11.2,19.6,23.1,29.1,34.8
		c11.6,14.2,22.6,28.9,35.3,42c15.7,16.2,28.5,34.8,43.6,51.4c25.6,28.2,48.1,59.2,73.4,87.6c20.9,23.4,40.1,48.2,61,71.6
		c19.8,22.2,37.9,45.8,57.9,67.9c-19.9,12.9-40.1,25.3-61.9,34.8C1181.6,2099.8,1178.2,2102.9,1174.5,2105.4z"/>
	<path class="st14" d="M2354.5,2327.7c-1.2-23.6-0.7-47.1,0.1-70.7c0.2-6.2,2.9-9.3,7.7-12.3c9.3-5.8,18.6-11.8,28.6-16.3
		c-0.3,6.4,4.1,10.9,7.5,15.2c12.7,15.9,26.1,31.4,39.3,46.9c9.5,11.1,19.4,22,28.8,33.2c13.5,16,26.5,32.3,40,48.2
		c14.5,17.2,30.3,33.3,43.9,51.2c14.2,18.8,30.7,35.6,45.5,53.9c12.8,15.9,26.9,30.8,39.4,46.8c17.4,22.3,36.6,43,54.1,65.1
		c24.7,31.1,51.7,60.3,77.1,90.9c5.2,6.2,11.8,12.1,13.6,20.8c-23.1,16.4-47.7,30.3-73.3,42.6c-0.1-3.7-0.7-7.1-3.3-10.2
		c-20-24.1-39.2-48.8-60-72.2c-15.3-17.2-30.1-34.8-44.7-52.4c-26-31.3-52.6-62-78.7-93.3c-18.7-22.4-38-44.5-56.4-67.1
		c-31.6-38.8-65.7-75.6-97-114.7C2363.6,2329.3,2359.7,2327.2,2354.5,2327.7z"/>
	<path class="st6" d="M1247.5,2063.3c-19.9-22.1-38.1-45.7-57.9-67.9c-20.9-23.4-40.1-48.2-61-71.6c-25.4-28.4-47.8-59.4-73.4-87.6
		c-15.2-16.7-27.9-35.2-43.6-51.4c-12.7-13.1-23.7-27.9-35.3-42c-9.6-11.7-18.9-23.6-29.1-34.8c-13.7-15-27.4-30.3-39.5-46.6
		c-7.8-10.5-17.4-19.4-25.3-29.9c-7.5-9.9-17.3-18.2-23.9-29c-1.5-2.5-4-3.2-6.6-3.9c18.2-15.1,40.2-24,59.9-36.6
		c4.8-3.1,10.3-5,15.4-7.4c0,7.4,4.1,13.2,8.5,18.2c8.3,9.5,15.6,19.6,24.2,28.8c13.6,14.4,26,30,38.8,45.2
		c16.2,19.1,32.4,38.3,48.4,57.5c13.4,16.1,26.4,32.4,39.8,48.4c8.7,10.5,18.8,19.6,27,30.6c18.5,24.6,39.6,47.2,59.3,70.9
		c15.6,18.8,30.2,38.8,48.1,55.8c12.2,11.6,20.6,26.3,31.6,38.9c18.9,21.6,37.2,43.8,56.6,65c2.8,3.1,6.1,5.9,6.9,10.3
		C1294,2038.1,1271.2,2051.5,1247.5,2063.3z"/>
	<path class="st14" d="M1978.2,1743.9c7.1,4.1,10.5,11.6,15.8,17.2c21.5,22.9,40,48.3,61.2,71.5c20.4,22.4,38.6,46.7,58.1,69.9
		c14.5,17.2,29.7,33.8,44.2,50.9c22.2,26.4,44.1,53.1,66.1,79.6c14.4,17.3,28.7,34.6,43.2,51.7c14.5,17.1,29.7,33.7,43.3,51.6
		c9.5,12.5,22.3,22.1,31.2,35.3c6.1,9.1,13.4,17.4,21.4,25c3.8,3.6,6.1,8.5,6.7,13.9c-6.8,5.3-13.6,10.7-20.4,16
		c-3.5,2.8-6.8,3.9-11.3,1.2c-43-25.7-86.1-51.2-129.1-76.7c0.4-7.3-2.5-13.3-7.4-18.4c-6.5-6.8-12.5-14.1-18.5-21.3
		c-30.5-36.5-61.6-72.5-92.4-108.6c-18.7-21.9-37.9-43.2-55.7-65.8c-20.1-25.4-42.5-48.9-62.4-74.5c-13.8-17.7-29-34.3-43.4-51.6
		c-7.5-9-12.5-20.6-23.4-26.7c2.3-3.5,5.3-5.9,9.7-6.2c0,0,1.3,0.2,1.3,0.2l0.7-1c0.9-0.7,1.8-1.3,2.7-2c0,0,1-0.7,1-0.7
		c1.9-0.8,3.9-1.5,5.8-2.3c1.4,0.4,2.7,0.3,3.1-1.5c0.9-0.7,1.8-1.3,2.7-2c3.9,0.6,6.1-1.3,7.3-4.9c0.3-1,1-1.4,2-1.4
		c0.8,0.1,1.2-0.2,1.2-1c1.6-0.7,3.2-1.5,4.8-2.2c3.8,0.7,7.7,1.4,7.8-4.5c1-0.5,2-1,2.9-1.5c4.5,0.7,8.1-0.5,9.5-5.4
		c0.3-1,1-1.4,2.1-1.3c0,0,0.8,0,0.8,0l0.2-0.7c1.1-0.7,2.2-1.4,3.3-2C1975.4,1743.9,1976.8,1743.9,1978.2,1743.9z"/>
	<path class="st11" d="M991,2239.5c21.8-13.2,43.3-26.7,66.3-37.8c0.9,7.2,5.2,12.2,9.7,17.5c20.6,24.3,40.8,49,61.3,73.3
		c14.5,17.2,29.5,33.9,44.1,51c12.9,15.1,25,30.8,38.3,45.6c14.6,16.3,28.1,33.7,42.2,50.5c12.8,15.2,26.5,29.6,38.4,45.5
		c9.8,13,21.4,24.3,31.7,36.8c19.9,24.2,40.8,47.6,60.2,72.2c13.9,17.6,29.2,34.2,43.8,51.2c8.1,9.4,17.3,18.1,21.9,30.1
		c-6.9,8.1-17.5,10.7-26,16.3c-13.8,9.1-28.8,16.4-43.3,24.4c0.5-13.5-9.1-21.7-16.7-30.8c-25.4-30.5-51.9-60-76.5-91.2
		c-14.2-18-29.9-34.9-44.9-52.3c-14.7-17-28.9-34.3-43.4-51.5c-14.5-17.2-27.7-35.4-43.4-51.6c-13.4-13.8-24.9-29.5-37.2-44.4
		c-8.3-10-16.4-20.4-25.1-30c-20.8-22.8-40.5-46.5-59.7-70.6c-9.4-11.9-21.1-21.8-29.7-34.4C998.5,2253,992.8,2247.4,991,2239.5z"/>
	<path class="st9" d="M2780.2,2700.6c-1.8-8.7-8.4-14.6-13.6-20.8c-25.4-30.6-52.4-59.8-77.1-90.9c-17.6-22.1-36.8-42.8-54.1-65.1
		c-12.5-16-26.6-30.9-39.4-46.8c-14.8-18.3-31.3-35.1-45.5-53.9c-13.5-17.9-29.3-34.1-43.9-51.2c-13.5-15.9-26.6-32.3-40-48.2
		c-9.4-11.2-19.3-22-28.8-33.2c-13.2-15.5-26.6-31-39.3-46.9c-3.4-4.3-7.8-8.8-7.5-15.2c21.5-13.6,43.7-26.1,66.2-38
		c0.2,4.4,2.4,7.7,5.1,11.2c20.8,26.8,43.9,51.7,65.1,78.1c16.7,20.7,34.5,40.4,51,61.3c13.5,17.1,28.1,33.6,42.3,50.3
		c15.5,18.3,30.8,36.7,46.3,55c13.5,15.9,27.4,31.5,40.5,47.7c15.7,19.5,32.9,37.7,48.9,56.9c14.9,18,30.3,35.9,45.3,53.9
		c15.2,18.2,33.6,34.3,43.8,56.5c-2.6,0.9-5.7,1.3-6,5c-0.1,1.1-0.7,1.8-1.8,2.1c0,0-0.6,0-0.6,0c-16.2,9.6-32.3,19.2-48.5,28.9
		c-1.1-0.1-1.8,0.4-2.3,1.3C2784.6,2700.1,2782.5,2700.8,2780.2,2700.6z"/>
	<path class="st10" d="M2441.8,2169.9c0.1-4.7-2.9-7.7-6-10.6c-17.2-16.9-30.1-37.4-46.3-55.1c-13.4-14.7-25.9-30-38.5-45.4
		c-25.2-30.6-51.5-60.2-76.4-91.2c-15.6-19.4-32.7-38-49.2-56.8c-13.4-15.3-25.7-31.6-39.1-46.8c-14.8-16.8-29.1-34.2-43.5-51.3
		c-12.5-14.7-24.9-29.5-37.3-44.3c-14.7-17.6-29.2-35.4-44.2-52.8c-4.3-4.9-8.1-9.5-8.3-16.3c19.9-14.6,41.3-26.6,63.4-37.6
		c3.4,13.4,13.6,22.6,22,32c21.1,23.3,39.9,48.4,60.9,71.8c20.2,22.5,38.3,47,58.2,69.7c13.1,15,25.9,30.1,38.5,45.5
		c20.6,25,42.7,48.7,62.5,74.4c13,17,28.5,32.1,41.7,48.9c30.3,38.7,65.5,73.2,94.6,112.9c4,5.4,8.9,10.4,15.4,13.2
		C2487.7,2143.7,2465.9,2158.8,2441.8,2169.9z"/>
	<path class="st14" d="M1126.6,760.9c0.3,16.1,13.7,24.3,22.1,35c21,26.7,43.4,52.2,65.3,78.1c18.2,21.6,37.2,42.5,54.6,64.7
		c20,25.5,42.3,49,62.6,74.3c18.6,23.2,38.7,45.2,57.9,68c20.5,24.3,40.6,49,61.2,73.3c20.3,23.9,41.1,47.4,61.3,71.3
		c13.2,15.5,25.6,31.6,38.7,47.2c14.5,17.2,29,34.3,44,51c11.6,12.8,20.5,27.8,33.2,39.6c3.8,3.5,6.7,8.3,12.7,8.5
		c1,24.2,1.1,48.4,0,72.6c-13.2,0.2-18.5-11.1-25.5-18.9c-16.1-17.8-31-36.7-46.4-55.1c-19.4-23.3-37.9-47.3-58.3-69.7
		c-15.2-16.6-28.1-35-43.4-51.6c-18.7-20.3-36.9-41.2-53.2-63.7c-1.8-2.5-3.7-5.1-5.9-7.3c-27.1-25.7-47.2-57.3-72.4-84.5
		c-27-29.2-50.2-61.5-77-90.9c-25.7-28.1-48.7-58.6-73.2-87.8c-19.1-22.8-39-45.1-57.9-68.1c-18.2-22.2-38.7-42.5-54.9-66.4
		c-6.8-10-17.5-16.6-23.7-27.2c-2.1-3.5-6.5-2.8-10.1-3c-2.8-8.3-3.2-16.9-3.1-25.5c0.1-5.5,1.2-10.1,6.7-12.5
		C1070.9,727.3,1098.8,744,1126.6,760.9z"/>
	<path class="st13" d="M566.1,1763.7c18.2,23.7,37.4,46.4,57.2,68.8c21,23.8,39.7,49.6,61.3,72.9c27.1,29.2,50,61.8,77.1,91
		c18.1,19.5,33,41.9,50.8,61.7c14.7,16.4,27.8,34,42.5,50.4c24,26.9,46.7,55,70.1,82.5c3.5,4.1,2.7,8.8,2.9,13.5
		c-78.8-45.1-157.5-90.2-236.2-135.4c-1.3-0.8-2.4-2-3.5-3c-0.2-4.7,0.8-9.5-2.6-13.5c-21-25.3-42.1-50.6-63-75.9
		c-18.6-22.5-34.7-47.2-56.5-67c-1.1-1-1.5-2.8-2.4-4c-14.1-20.2-31.6-37.6-47.5-56.2c-10.9-12.7-20.8-25.7-30.4-39.3
		c17.5-14,38-23.1,57-34.5C550.1,1771.1,557,1765.1,566.1,1763.7z"/>
	<path class="st6" d="M2354.5,2327.7c5.1-0.4,9.1,1.6,12.3,5.6c31.3,39.1,65.3,75.9,97,114.7c18.4,22.6,37.7,44.6,56.4,67.1
		c26,31.3,52.7,62,78.7,93.3c14.6,17.6,29.5,35.2,44.7,52.4c20.8,23.4,40,48.1,60,72.2c2.6,3.1,3.1,6.5,3.3,10.2
		c-24.1,16.6-49.5,31.1-75.7,44.2c1.3-9.7-2.4-17.1-9.9-23.3c-5.2-4.3-9.8-9.5-14.2-14.7c-14.5-17.2-28.5-34.6-43.1-51.7
		c-18.3-21.5-35.8-43.6-54.3-64.9c-15.3-17.7-31-35.3-45.3-53.9c-9.3-12.1-21.2-21.9-30.3-33.9c-21.4-28.4-46.5-53.7-67.5-82.3
		c-3-4.1-7.2-6-12.3-5.5C2353.2,2413.9,2353.5,2370.8,2354.5,2327.7z"/>
	<path class="st13" d="M2952.1,1907.7c1-0.8,1.9-1.5,2.9-2.3c0.2,48.3,0.5,96.7,0.6,145c0.1,177.6,0,355.3,0,532.9
		c0,3.7,0,7.4-0.1,11c-0.2,7-3.6,10.7-10.8,10.6c1.6-6.8,8.9-10.6,8.3-19.2c-1.2-17.5-0.7-35.1-0.9-52.7c0.2-25.2,0.3-50.4,0.6-75.6
		c0.1-10.5,1.9-21.5-12.4-24.8c-1.2-0.3-2-2.3-3-3.5c-28.7-34.5-56.9-69.5-86.3-103.5c-23.2-26.9-45.5-54.6-68.9-81.3
		c-7.7-8.7-12.2-20.1-21-27.1c-9.2-7.3-16.3-16.3-23.4-25.1c-24.3-30.1-48.8-59.8-75.3-88.1c-6.1-6.5-14-13.3-13-24.1
		c24.8-15.3,49.8-30.2,75.9-43.2c2.3,5.6,7.3,8.9,11.1,13.1c12.7,13.9,26.5,26.9,37.8,41.9c17.9,23.8,37.1,46.4,56.6,68.8
		c6.4,7.4,14.3,13.4,19.8,21.8c10.8,16.6,24.8,31,37.4,46.1c14.6,17.6,26.6,37.8,44.8,52.5c4.8,3.9,5.5,14.7,14.9,10.6
		c7.9-3.5,4.9-12,4.9-18.5c0.1-116.6,0.1-233.2,0.1-349.8C2952.7,1918.1,2952.3,1912.9,2952.1,1907.7z"/>
	<path class="st9" d="M1574.9,1904.9c0.7-2.6,3.2-1.9,5-2.6c0.2,59.8,0.5,119.7,0.5,179.5c0,167.5-0.2,334.9,0.2,502.4
		c0,12.8-3.4,20.4-15.3,25.4c-11,4.6-19.9,13.6-31.8,16.8c0.2-6.7-2.4-12.5-7-17c-23.5-22.5-42-49.3-63.2-73.8
		c-18.4-21.2-38-41.7-54-65c-1.2-1.7-2.7-3.2-4.1-4.8c-29-30.9-55.1-64.1-81.7-97c-13.8-17.1-28.8-33.1-43-49.9
		c-24.7-29-49.1-58.3-73.3-87.7c-13.6-16.5-27.2-33.1-41.6-48.9c-8.5-9.3-16.5-18.9-23.6-29.2c18.4-12.2,37.6-23,57.3-33
		c-0.1,3.7,0.5,7.2,3,10.3c8.6,10.5,16.6,21.5,25.6,31.7c21,23.9,40.6,49,61.4,73.2c14,16.2,26.9,33.3,41.8,48.8
		c16.3,17,30.1,36.1,45.9,53.6c16,17.8,31.2,36.4,46.5,54.9c14,16.9,27.9,33.8,41.9,50.6c11.3,13.7,22.6,27.4,34,41
		c17.2,20.3,34.5,40.5,51.7,60.8c5.4,6.4,10.6,12.9,16,19.3c1.7,2,4.3,3.2,7.1,2.3c3.1-1,3.5-3.7,3.4-6.3
		c-0.2-6.2-1.2-12.5-0.8-18.7c2.1-35.6,0.2-71.1,0.4-106.7c0.8-48.3,1-96.7-0.1-145c2.7-7.3-1.9-14-1.2-21.4
		c3.5-38,1.9-76.1,1.1-114.2c0.2-21.4,0.6-42.8,0.6-64.1c0.1-56.7,0.1-113.3,0-170C1577.5,1914.9,1579.1,1909.4,1574.9,1904.9z"/>
	<path class="st10" d="M1665.9,1138.6c5.4-0.7,8.2,2.4,11.6,6.2c23.1,25.6,44.6,52.6,66.5,79.3c13.9,17,28.8,33.2,43.1,49.9
		c12.9,15.1,26.4,29.8,38.3,45.6c8.2,10.9,17.7,20.7,26.4,31c14.5,17.2,28.1,35.1,42.9,51.9c14.5,16.5,29.4,32.7,42.7,50.2
		c18.7,24.5,41.3,45.7,59.2,71.1c6.9,9.7,16.4,17.5,24.8,26.2c-22.7,15.8-46.4,29.8-71.3,42c0-4.4-1.4-8-4.4-11.3
		c-16.8-18.6-34-37-49.7-56.4c-8.2-10.2-17.7-19.2-25.3-29.8c-20.8-28.8-45.2-54.7-68.2-81.8c-15.2-17.9-30.3-35.9-45.3-54
		c-12-14.5-23.6-29.3-36.1-43.3c-11.8-13.3-23.2-26.8-34.7-40.4c-5.5-6.6-10.3-14.9-20.3-16.3
		C1664.7,1218.5,1664.7,1178.6,1665.9,1138.6z"/>
	<path class="st4" d="M2353.7,2948.9c-0.2-23.1-0.5-46.2-0.5-69.3c0-87.8,0.2-175.5,0.3-263.3c0-5.8,0.4-11.5,0.7-17.3
		c3.7-0.1,7.4,0.2,10.2,3.1c5.8,6,12.4,11.3,17.2,18.3c15.3,22.3,34.8,41.2,51.9,62c11.3,13.7,24.2,26.2,34.5,40.4
		c9.5,13.1,19.8,25.4,30.1,37.6c17.9,21,35.7,42.1,52.9,63.7c2,2.5,3.7,5,7.1,5.7c-13.3,8.2-26.4,16.7-39.9,24.6
		c-28.9,16.9-57.9,33.5-86.9,50.2C2405.4,2919.3,2379.6,2934,2353.7,2948.9z"/>
	<path class="st7" d="M2558.1,2829.6c-3.4-0.6-5.1-3.1-7.1-5.7c-17.2-21.6-35-42.7-52.9-63.7c-10.3-12.1-20.6-24.5-30.1-37.6
		c-10.3-14.2-23.2-26.7-34.5-40.4c-17.1-20.8-36.6-39.7-51.9-62c-4.8-7-11.4-12.2-17.2-18.3c-2.8-2.9-6.5-3.2-10.2-3.1
		c-1.2-47.3-1-94.6,0.2-141.9c5.1-0.4,9.3,1.4,12.3,5.5c21,28.6,46.2,53.9,67.5,82.3c9.1,12.1,21,21.8,30.3,33.9
		c14.3,18.6,30,36.2,45.3,53.9c18.4,21.4,36,43.4,54.3,64.9c14.6,17.1,28.6,34.6,43.1,51.7c4.4,5.2,9,10.4,14.2,14.7
		c7.5,6.2,11.2,13.6,9.9,23.3c-17.4,10.5-34.6,21.6-52.4,31.4C2572,2822.5,2566,2827.9,2558.1,2829.6z"/>
	<path class="st11" d="M2952.2,2533.1c0.2,17.6-0.3,35.2,0.9,52.7c0.6,8.6-6.8,12.3-8.3,19.2c-0.8,3.3-3.3,4.3-6.3,4.5
		c-13.3-0.6-20.7-10.7-27.1-19.7c-14-19.7-31.7-36.2-46.6-55c-24.4-30.7-50-60.4-75.4-90.2c-15.6-18.3-29.7-37.9-46.9-54.9
		c-13.7-13.5-25.2-29.3-37.6-44.1c-14.4-17.2-28.7-34.6-43.1-51.8c-20.1-24.1-40.1-48.2-60.3-72.2c-14.5-17.2-29.4-34.1-44.1-51.1
		c-7.1-8.2-15.2-15.8-18.1-26.9c16.1-10.8,33.1-20.2,50.4-29.1c0.4,4.7,0.5,9.3,3.9,13.2c11.6,13.4,22.5,27.5,34.5,40.6
		c20.1,22,37.3,46.4,57.7,68.2c16.4,17.5,30.2,37.4,46.6,54.9c20.4,21.8,38,45.9,57.3,68.5c21.7,25.4,43.8,50.5,65,76.3
		c12.9,15.7,25.7,31.6,38.8,47.1c14.8,17.6,29.7,35.1,45,52.2C2945.5,2543.3,2945.9,2542.9,2952.2,2533.1z"/>
	<path class="st6" d="M1905.3,1784.2c10.9,6.1,15.9,17.7,23.4,26.7c14.4,17.2,29.6,33.8,43.4,51.6c19.9,25.6,42.3,49,62.4,74.5
		c17.8,22.5,37.1,43.9,55.7,65.8c30.9,36.2,62,72.1,92.4,108.6c6,7.2,12,14.5,18.5,21.3c4.9,5.1,7.8,11.1,7.4,18.4
		c-19.3-9.2-37.4-20.4-55.9-31.1c-44.3-25.7-88.8-51.1-133.2-76.8c-4.4-2.6-9.6-4.2-12.9-8.5c0-5.2,1-10.6-3.4-14.8
		c-8.3-8-14.2-18-22.5-26.2c-10.7-10.6-20.4-22.4-30.1-34c-18.1-21.6-36.1-43.3-53.7-65.3c-15-18.8-32.6-35.4-46.3-55.2
		c-3.8-5.5-10.6-8.9-11.6-16.4c11.9-10.9,27.5-15.9,40.7-24.9C1887.5,1792.5,1896.6,1788.7,1905.3,1784.2z"/>
	<path class="st9" d="M1666,1258.5c10,1.4,14.7,9.7,20.3,16.3c11.4,13.6,22.9,27.1,34.7,40.4c12.5,14,24.1,28.8,36.1,43.3
		c15,18.1,30.1,36.1,45.3,54c23,27,47.4,52.9,68.2,81.8c7.7,10.6,17.1,19.7,25.3,29.8c15.8,19.5,33,37.8,49.7,56.4
		c3.1,3.4,4.4,7,4.4,11.3c-18.9,12.6-38.1,24.9-59.3,33.6c-4.6-8.5-12.8-13.8-18.7-21.1c-14.1-17.4-28.1-35-43.1-51.7
		c-19.9-22.2-37.3-46.4-57.6-68.3c-15.2-16.5-28.8-34.4-43.2-51.6c-14.7-17.6-31.2-33.7-44.3-52.7c-4.3-6.3-8.9-13.2-17.8-14.3
		C1664.8,1330,1664.8,1294.2,1666,1258.5z"/>
	<path class="st8" d="M1337.3,522.6c2.5,4.6,4.5,9.5,8.2,13.3c25.5,26.3,47.2,55.8,71.5,83.1c17,19.1,31.9,40.1,50.3,58.1
		c11.5,11.2,20.5,25,30.8,37.5c8.9,10.9,18,21.6,27.1,32.5c14.7,17.6,28.8,35.8,44.3,52.7c14.1,15.5,27.2,31.8,40.5,47.8
		c20,24.1,39.4,48.7,60.4,71.9c17.6,19.4,32,41.4,51.5,59.1c4.5,4.1,10.3,7.8,10.3,15.1c-14.1,7.4-26.4,17.7-41.2,24
		c0.6-5.2-2.2-8.7-5.3-12.5c-19.9-24.1-41.6-46.7-60.3-72c-13.6-18.4-30-34.7-45-52.2c-9.2-10.7-18.3-21.5-26.7-32.7
		c-12.8-17.1-28.9-31.4-42.1-48.2c-19.9-25.4-40.4-50.5-62.2-74.4c-21.2-23.2-39.9-48.3-60.7-71.7c-18-20.2-36.8-39.9-52-62.6
		c-7.5-11.2-17.2-21-26.6-30.8c-5.2-5.4-7.8-10.9-7-18.2C1314.9,536.4,1324.5,526.9,1337.3,522.6z"/>
	<path class="st10" d="M1214.4,594.8c-0.9,9,3.2,16.5,8.5,22.9c13.7,16.5,27.9,32.4,41.8,48.8c15.5,18.3,30.8,36.8,46.3,55.1
		c18.1,21.6,36.4,43,54.5,64.6c15.5,18.3,30.1,37.4,46.4,55c22.8,24.5,41,52.8,65.5,75.9c6.6,6.2,12.4,12.9,11.9,22.9
		c-18.7-8-35.6-19.3-53.2-29.3c-42.3-24.2-84.5-48.7-126.7-73.1c-2.2-1.3-4.1-3.1-6.2-4.6c0-5.2-0.4-9.4-4.8-14
		c-14-14.7-27.1-30.3-40.3-45.8c-16.6-19.4-33-39-49.4-58.5c-17.5-20.7-35.1-41.4-52.1-62.4c-4.4-5.5-9.4-11.5-7.9-19.7
		c1.3-0.6,2.7-1.3,4-1.9c2.3,0.2,4.3-0.1,4.6-3C1175.4,614.9,1194,603.2,1214.4,594.8z"/>
	<path class="st3" d="M485.7,1810c9.5,13.6,19.5,26.6,30.4,39.3c16,18.6,33.4,36,47.5,56.2c0.9,1.3,1.3,3,2.4,4
		c21.8,19.8,37.9,44.5,56.5,67c21,25.3,42,50.6,63,75.9c3.4,4.1,2.5,8.9,2.6,13.5c-26.5-12.7-51.3-28.6-76.8-43.1
		c-78.4-44.8-156.7-89.8-235-134.9c-4-2.3-8.7-3.9-11.5-8.1c8.6-9.4,20.9-13.2,31.4-19.6c23.9-14.7,48.2-28.6,72.5-42.6
		C474.1,1814.7,479.3,1810.8,485.7,1810z"/>
	<path class="st4" d="M1564.8,1880.5c-1.4,1.6-2.4,3.6-4.1,4.6c-36.6,20.8-73.3,41.5-110,62.2c-7.4-4-9.6-12.1-14.6-18
		c-18.4-21.2-34.1-44.7-54.4-64.5c-11.4-11.2-21.3-24.1-30.8-37.1c-5-6.8-11.7-11.5-16.9-18.2c-25.1-31.9-49.1-64.8-78.7-92.8
		c-5.5-5.2-10.2-10.6-8.7-18.9c20.6,11.4,42.5,20.8,60.3,36.7c1.4,0.1,2.7,0.1,4.1,0.2c2.5,0.4,4.3,1.7,5.6,3.9
		c0.6,2.1,1.9,2.7,3.9,1.9c2.2,0.2,4,1.2,5.3,3c0.4,4.3,3.5,4,6.5,3.7c1.1,0.7,2.1,1.3,3.2,2c0,0,0.2,0.8,0.2,0.8l0.9,0.1
		c0.8,0.6,1.6,1.2,2.4,1.8c0.5,1.8,1.7,1.9,3.2,1.5c1,0.4,1.9,0.8,2.9,1.1c0.3,2.1,1.7,2.5,3.5,2c1,0.6,2,1.2,3,1.7
		c0.6,1.8,1.9,1.9,3.4,1.5c2.8,0.6,4.7,2.4,6.3,4.5c0.2,2,1.5,2,3,1.6c1,0.5,1.9,1,2.9,1.4c0,0,0.5,1.2,0.5,1.2l1.3,0.1
		c30.6,14.7,58.9,33.6,88.6,49.9C1493.7,1838.5,1529.1,1859.8,1564.8,1880.5z"/>
	<path class="st14" d="M1666.1,1365.7c8.9,1,13.5,8,17.8,14.3c13.2,19,29.6,35.1,44.3,52.7c14.4,17.2,28,35.2,43.2,51.6
		c20.2,21.9,37.7,46.1,57.6,68.3c14.9,16.7,29,34.3,43.1,51.7c5.9,7.3,14.1,12.6,18.7,21.1c-1.5,3.6-5.9,3.3-8.2,5.8
		c-0.9-0.1-1.4,0.4-1.4,1.3c-0.4,1-1.1,1.5-2.1,1.6c-1.8-0.4-3.4-0.3-3.9,2c-0.7,0.9-1.6,1.3-2.7,1.2c-1.5-0.3-2.8-0.3-3.2,1.6
		c-1.2,0.6-2.3,1.2-3.5,1.8c-1.4-0.5-2.5-0.4-2.8,1.4c-1.1,0.6-2.2,1.2-3.3,1.8c0,0-0.5,0.4-0.5,0.4c-1.5,1.1-3.1,2.2-4.6,3.3
		c0,0-1-0.1-1-0.1l-0.3,1c-1,0.6-2,1.2-2.9,1.8c-5-1.7-8.8,3-13.6,2.7c-7.3-0.2-11-5.6-14.8-10.5c-9.4-11.9-19-23.6-29.1-34.9
		c-13.5-15.2-25.7-31.6-39.5-46.7c-5.9-6.4-11.7-13.3-17.3-20.2c-19.5-23.8-39.4-47.4-59.2-71c-2.7-3.2-5.8-6.1-10.5-6.1
		C1664.7,1430.9,1665,1398.3,1666.1,1365.7z"/>
	<path class="st14" d="M1720.7,1899.7c0.7,0.8,1.5,1.5,2.2,2.3c5.3,18.7-0.2,37.4,0,56.1c0.1,16.1,2.1,32.1,2.5,48.1
		c0.4,17-1.8,34-2.1,51c-0.4,19.4-0.5,38.7,1.3,58.1c1.3,14.2,2,28.9-0.7,43.3c-0.8,4.6-1.4,9.5-0.9,14.1
		c2.6,23.1-1.5,46.4,1.5,69.4c1.8,14-0.8,27.8,0.6,41.8c0.9,9.2-4.2,18.4-1.6,27.9c0.7,29.4,2.4,58.9,1.9,88.3
		c-0.5,23.4,0.7,46.7,0.2,70c-0.2,7.4,2.3,12.8,7.4,18.1c18.5,19.2,34.1,40.8,52,60.5c15.5,17,29.8,35,44.7,52.4
		c14.3,16.6,29.2,32.6,42.5,50c10.4,13.6,22.3,26.2,32.3,40.2c9.5,13.4,20,25.3,35.9,31.1c2,0.7,2.6,3.1,2.3,5.4
		c-19.9-7.1-36.9-19.7-55-30c-52.9-29.9-105.1-61-157.8-91.2c-7.5-4.3-9.8-9.1-9.7-17.5c0.3-132.7,0.3-265.5,0.3-398.2
		c0-93.4-0.2-186.8-0.3-280.1C1720.4,1907.1,1720.6,1903.4,1720.7,1899.7z"/>
	<path class="st7" d="M1838.8,1822.8c1,7.5,7.8,10.9,11.6,16.4c13.8,19.8,31.3,36.4,46.3,55.2c17.6,22,35.6,43.7,53.7,65.3
		c9.7,11.6,19.4,23.4,30.1,34c8.3,8.2,14.2,18.2,22.5,26.2c4.4,4.2,3.4,9.6,3.4,14.8c-19.7-10.8-39.5-21.3-59-32.5
		c-66.3-38.2-132.6-76.6-198.8-115c-3.6-2.1-6.9-4.7-10.3-7c27.5-16.1,54.8-32.3,82.5-48C1826.7,1828.8,1831.9,1824,1838.8,1822.8z"
		/>
	<path class="st10" d="M1640.1,1186c-6-0.2-9-5-12.6-8.6c-18.5-18.4-33.7-39.6-50.7-59.3c-13.6-15.8-26.5-32.1-40.6-47.5
		c-12.4-13.5-24.1-27.4-34.8-42.1c-9.6-13.1-21.5-24.1-31.6-36.6c-8.8-10.8-17.5-22-27.5-32c-5.1-5.2-11-11.6-9.4-20.6
		c5.2-1.3,9.1,1.6,13.1,3.9c62.3,35.8,124.6,71.7,187.1,107.2c7.5,4.3,9.4,8.6,8.9,17.4c-1.4,22.5-0.8,45.1-1,67.7
		C1640.6,1152.4,1640.3,1169.2,1640.1,1186z"/>
	<path class="st6" d="M1666.1,1463.5c4.7-0.1,7.8,2.8,10.5,6.1c19.8,23.6,39.7,47.1,59.2,71c5.6,6.9,11.4,13.8,17.3,20.2
		c13.8,15.1,26,31.4,39.5,46.7c10.1,11.3,19.7,23,29.1,34.9c3.9,4.9,7.6,10.3,14.8,10.5c0.1,1.5,0.3,3,0.4,4.5
		c-1.2,0.7-2.3,1.5-3.5,2.2c-4.1-0.3-8.8-1.7-9.3,4.9c-16,11.7-33.3,21.2-51.1,29.7c-9.3-7.1-13.8-18.1-21.1-26.9
		c-11.2-13.7-24.3-25.6-35-39.9c-11.8-15.8-25.3-30.3-38.3-45.2c-3.4-3.8-6.7-8.3-12.7-8.3
		C1664.9,1537.1,1665.1,1500.3,1666.1,1463.5z"/>
	<path class="st9" d="M1148.6,632.3c-1.5,8.2,3.5,14.3,7.9,19.7c17.1,21.1,34.7,41.7,52.1,62.4c16.4,19.5,32.8,39.1,49.4,58.5
		c13.2,15.5,26.3,31.1,40.3,45.8c4.4,4.6,4.7,8.8,4.8,14c-21-11.5-42.1-22.7-62.9-34.6c-59.5-34-118.8-68.4-178.2-102.6
		c-3.2-1.8-6.2-3.8-9.4-5.8C1060.1,681.7,1129,640.5,1148.6,632.3z"/>
	<path class="st7" d="M1666.1,1573.9c6,0,9.3,4.4,12.7,8.3c13,14.9,26.5,29.4,38.3,45.2c10.7,14.2,23.7,26.2,35,39.9
		c7.2,8.8,11.7,19.8,21.1,26.9c-5.4,6.5-15.2,5.5-20.4,12.3c-1.9-0.2-3.6-0.2-4,2.2c-0.3,0.9-1,1.4-2,1.3c-3.4-0.6-5.8,0.7-7.1,4
		c-1.3,0.6-2.6,1.3-3.8,1.9c-1.3-0.2-2.4-0.1-2.6,1.6c-1,0.6-2.1,1.2-3.1,1.8c-1.9-0.5-3.2,0.1-3.7,2.2
		c-19.5,11.7-39,23.5-60.4,36.3C1666.1,1694.4,1666.1,1634.1,1666.1,1573.9z"/>
	<path class="st9" d="M1041.9,712.6c-5.5,2.4-6.6,7-6.7,12.5c-0.1,8.7,0.2,17.2,3.1,25.5c-3.6,2.6-2.8,6.2-2.4,9.7
		c-0.3,0.9-0.3,1.8,0,2.7c0.6,14.2,1.9,28.4-0.3,42.7c-0.6,3.6-0.2,7.3-0.3,11c-0.5,21.2,5.1,42.3,0.2,63.7
		c-2.1,9.2,4.1,18.3,2.7,27.8c-0.6,21.4,0,42.9-0.8,64.3c-0.7,19.6,1.4,39.1,0.4,58.6c-0.8,1.9-2.6,4-2.2,5.6
		c4.3,18.8-2.7,37.5-0.1,56.1c3,21.1,0.5,42.2,1.7,63.4c1.1,19.9-1.9,40.3-1.1,60.3c1,25.5-1.2,50.8-0.8,76.3
		c0.2,12,4.5,23.8,2.6,35.9c-3.4,22.6,0.6,45.3-1.6,67.9c-0.5,4.8,2.6,10,4,15c-10.2-2.1-7-10.6-7.1-16.6c-0.4-25.7,0-51.4,0-77.1
		c-0.1-119.7-0.2-239.3-0.2-359c0-78.2,0.1-156.4,0.1-234.6c0-3.2,0-6.3,0.2-9.4C1033.7,705.2,1037.9,709.2,1041.9,712.6z"/>
	<path class="st3" d="M2259.2,1412.4c7-6.6,6-15.2,6-23.5c0-203.6,0-407.2,0-610.9c0-15.2,0.1-30.4,0-45.7c0-4.6,1.3-9.6-3.1-13.2
		c1.5-1.9,4.1-2.8,4.8-0.3c1,4,0.8,8.3,0.8,12.4c0,220.2,0.1,440.4-0.2,660.6C2267.5,1399.2,2272.1,1409.7,2259.2,1412.4z"/>
	<path class="st11" d="M1837.1,1657.3c-0.1-1.5-0.3-3-0.4-4.5c4.8,0.3,8.6-4.4,13.6-2.7C1847,1654.6,1842.6,1656.9,1837.1,1657.3z"
		/>
	<path class="st9" d="M1043.5,1413.7c6.7,1.1,12,4.4,15.8,10C1052.8,1422.2,1047.5,1419,1043.5,1413.7z"/>
	<path class="st11" d="M1824.3,1664.4c0.4-6.6,5.2-5.2,9.3-4.9C1831.6,1663.3,1827.8,1663.5,1824.3,1664.4z"/>
	<path class="st14" d="M1124.6,1627.1c-4.5,0.2-9.8,1.8-10.1-5.6C1118.7,1621.9,1122.2,1623.5,1124.6,1627.1z"/>
	<path class="st14" d="M1957.9,2737.7c3.9,0.5,9.3-2.2,10.1,4.8C1963.9,2742.4,1960.7,2740.4,1957.9,2737.7z"/>
	<path class="st11" d="M2839.5,2666.3c0.3-3.7,3.3-4.1,6-5c0.7,0.3,1.4,0.6,2.1,1C2846,2665.8,2842.7,2666,2839.5,2666.3z"/>
	<path class="st9" d="M1064.9,1426.2c3.7-0.8,7-0.9,7.5,4.1C1069.1,1430.5,1066.3,1429.7,1064.9,1426.2z"/>
	<path class="st10" d="M1955.3,1754.8c-0.1,5.9-4,5.2-7.8,4.5C1949.4,1756.6,1951.9,1754.8,1955.3,1754.8z"/>
	<path class="st10" d="M1967.8,1748c-1.5,4.9-5,6-9.5,5.4C1960.8,1750.4,1964,1748.6,1967.8,1748z"/>
	<path class="st10" d="M1989.9,1735.3c-1.7,5.2-5.5,6.1-10.2,5.2C1982.3,1737.2,1985.8,1735.7,1989.9,1735.3z"/>
	<path class="st14" d="M1140.3,1636.7c-3.8,0.4-6.9-0.1-7.2-4.9C1136.3,1632.5,1138.9,1633.8,1140.3,1636.7z"/>
	<path class="st14" d="M1332.3,1747.2c-3.1,0.3-6.1,0.6-6.5-3.7C1328.6,1743.6,1331.1,1744.1,1332.3,1747.2z"/>
	<path class="st9" d="M1080.5,1435.7c3.9-0.6,6.2,1.3,7.5,4.8C1084.7,1440,1082,1438.8,1080.5,1435.7z"/>
	<path class="st9" d="M1739.7,1714c1.2-3.3,3.6-4.6,7.1-4C1745.5,1713.2,1743.1,1714.4,1739.7,1714z"/>
	<path class="st10" d="M1939.5,1763.9c-1.2,3.5-3.4,5.5-7.3,4.9C1933.5,1765.3,1936.2,1764.1,1939.5,1763.9z"/>
	<path class="st13" d="M1444.5,461c-0.5,2-1.9,2.6-3.8,2.1C1441.1,461,1442.6,460.7,1444.5,461z"/>
	<path class="st14" d="M1948.4,2731.4c2-0.2,3.5,0.3,4,2.6C1950.3,2734.3,1949.1,2733.3,1948.4,2731.4z"/>
	<path class="st13" d="M1450.6,458c-0.6,2.5-2.5,2.4-4.4,2C1446.9,457.7,1448.5,457.5,1450.6,458z"/>
	<path class="st11" d="M2852.1,2660.8c0-2.4,0.8-4.2,3.5-4.6C2855.3,2658.5,2855.1,2660.7,2852.1,2660.8z"/>
	<path class="st10" d="M1929.6,1770.7c-0.5,1.8-1.7,1.8-3.1,1.5C1927,1770.5,1928,1770.1,1929.6,1770.7z"/>
	<path class="st14" d="M1971.2,2744.2c1.5-0.3,2.6,0.2,3.1,1.7C1972.8,2746.4,1971.5,2746.2,1971.2,2744.2z"/>
	<path class="st11" d="M1875.1,1636.1c0.5-2.3,2.1-2.3,3.9-2C1878.5,1636.3,1877,1636.7,1875.1,1636.1z"/>
	<path class="st14" d="M1146.3,1639.8c-1.6,0.3-2.7-0.1-3.1-1.8C1144.9,1637.5,1146,1637.9,1146.3,1639.8z"/>
	<path class="st11" d="M1869.2,1638.9c0.4-1.9,1.8-1.9,3.2-1.6C1871.9,1638.9,1870.8,1639.6,1869.2,1638.9z"/>
	<path class="st11" d="M1862.9,1642.1c0.3-1.8,1.4-1.9,2.8-1.4C1865.5,1642.6,1864.4,1642.7,1862.9,1642.1z"/>
	<path class="st14" d="M1157.3,1645.8c-2.2,0.6-4,0.5-4.6-2.2C1154.9,1643,1156.6,1643.4,1157.3,1645.8z"/>
	<path class="st9" d="M1748.8,1708.6c0.4-2.4,2.2-2.4,4-2.2C1752,1708.2,1750.8,1709.2,1748.8,1708.6z"/>
	<path class="st9" d="M1733.3,1717.5c0.2-1.6,1.3-1.8,2.6-1.6C1735.8,1717.6,1734.8,1718.1,1733.3,1717.5z"/>
	<path class="st9" d="M1726.5,1721.4c0.4-2.1,1.7-2.6,3.7-2.2C1729.8,1721.4,1728.3,1721.6,1726.5,1721.4z"/>
	<path class="st10" d="M2006.2,1725.7c-0.9,2-2.4,2.7-4.5,2.2C2002.5,1725.7,2004.2,1725.5,2006.2,1725.7z"/>
	<path class="st9" d="M1157.2,627.4c-0.3,2.9-2.3,3.1-4.6,3C1153.4,628.2,1155,627.4,1157.2,627.4z"/>
	<path class="st14" d="M1311,1734.7c-1.4-0.1-2.7-0.1-4.1-0.2C1308.3,1733.4,1309.7,1732.8,1311,1734.7z"/>
	<path class="st10" d="M1996.7,1731.6c-0.7,2.1-2,3.1-4.2,2.4C1993,1731.8,1994.7,1731.5,1996.7,1731.6z"/>
	<path class="st14" d="M1320.5,1740.5c-2,0.9-3.4,0.3-3.9-1.9C1318.4,1738,1319.9,1738.3,1320.5,1740.5z"/>
	<path class="st10" d="M1978.2,1743.9c-1.4,0-2.8,0-4.1,0c0.3-2.2,1.7-2.8,3.7-2.4C1978,1742.3,1978.2,1743.1,1978.2,1743.9z"/>
	<path class="st13" d="M1428.8,470.4c-0.6,2.4-2.3,2.8-4.4,2.3C1425,470.3,1426.7,470,1428.8,470.4z"/>
	<path class="st14" d="M1342.2,1753.4c-1.5,0.4-2.8,0.2-3.2-1.5C1340.5,1751.3,1341.7,1751.7,1342.2,1753.4z"/>
	<path class="st14" d="M1348.5,1756.5c-1.8,0.5-3.1,0.1-3.5-2C1347,1753.9,1348.2,1754.4,1348.5,1756.5z"/>
	<path class="st14" d="M1355,1759.8c-1.5,0.4-2.9,0.3-3.4-1.5C1353.2,1757.6,1354.4,1758.1,1355,1759.8z"/>
	<path class="st13" d="M1438.2,464.2c-0.5,2.1-1.9,2.6-3.8,2C1434.8,463.9,1436.3,463.8,1438.2,464.2z"/>
	<path class="st14" d="M1364.3,1765.9c-1.5,0.4-2.8,0.4-3-1.6C1362.9,1763.7,1363.9,1764.3,1364.3,1765.9z"/>
	<path class="st14" d="M1097.1,1611.2l-0.9,0c0,0-0.4-0.8-0.4-0.8c0,0,1.1-0.2,1.1-0.2L1097.1,1611.2z"/>
	<path class="st8" d="M2211.6,1441c0.6-1.2,1.5-2.1,3-1.9C2214.2,1440.7,2213.2,1441.3,2211.6,1441z"/>
	<path class="st9" d="M1076.3,1432.9c1.4-0.5,2.1,0,2.2,1.5C1077,1434.9,1076.3,1434.4,1076.3,1432.9z"/>
	<polygon class="st11" points="2837.1,2668.4 2837.7,2668.4 2837.4,2669.3 	"/>
	<polygon class="st13" points="1457,453.3 1456.6,453.6 1456.4,452.9 	"/>
	<path class="st14" d="M2786.3,2698.6c0.5-1,1.2-1.4,2.3-1.3C2788.4,2698.7,2787.7,2699.1,2786.3,2698.6z"/>
	<path class="st14" d="M1977.4,2748c1.5-0.3,2.7-0.1,2.9,1.8C1978.7,2750.2,1977.7,2749.7,1977.4,2748z"/>
	<path class="st13" d="M1431.5,468.2l-0.3,0.9c0,0-1,0.2-1,0.2c0,0,0.2-1.1,0.2-1.1L1431.5,468.2z"/>
	<path class="st13" d="M1453.7,456c0,0-0.8,0.7-0.8,0.7c0,0,0-0.8,0-0.8L1453.7,456z"/>
	<path class="st14" d="M1944.2,2728.8c1.1-0.1,1.8,0.4,1.9,1.5C1944.7,2730.8,1944,2730.4,1944.2,2728.8z"/>
	<path class="st14" d="M1953.6,2735c1.1-0.1,1.8,0.4,1.9,1.6C1954.1,2737,1953.5,2736.4,1953.6,2735z"/>
	<path class="st14" d="M1101.2,1614c-1.3,0.4-2.1-0.1-2.1-1.5C1100.5,1612,1101.2,1612.5,1101.2,1614z"/>
	<path class="st14" d="M1106.2,1617.5c0,0-0.8-0.5-0.8-0.5c0,0,0.8-0.4,0.8-0.4L1106.2,1617.5z"/>
	<path class="st14" d="M1112.9,1620.6l-0.8,0c0,0-0.3-0.7-0.3-0.7c0,0,1-0.3,1-0.3L1112.9,1620.6z"/>
	<path class="st14" d="M1129.2,1630l-1,0.1c0,0-0.4-0.9-0.4-0.9c0,0,1.1-0.2,1.1-0.2L1129.2,1630z"/>
	<path class="st11" d="M1881.1,1632.5c0-0.9,0.4-1.4,1.4-1.3c0,0-0.1,1.2-0.1,1.2L1881.1,1632.5z"/>
	<path class="st14" d="M1150.8,1642.7l-0.8,0c0,0-0.2-0.8-0.2-0.8c0,0,1-0.3,1-0.3L1150.8,1642.7z"/>
	<polygon class="st11" points="1859.1,1644.2 1859.7,1643.8 1859.8,1644.5 	"/>
	<path class="st11" d="M1853.2,1648.3l0.3-1c0,0,1,0.1,1,0.1c0,0-0.2,1-0.2,1L1853.2,1648.3z"/>
	<path class="st10" d="M1999.6,1729.2c-0.7,0.6-1.5,1.3-2.2,1.9C1997.3,1729.6,1998,1728.9,1999.6,1729.2z"/>
	<path class="st10" d="M1970.8,1745.9l-0.2,0.7c0,0-0.8,0-0.8,0c0,0,0-0.9,0-0.9L1970.8,1745.9z"/>
	<path class="st14" d="M1336.6,1750l-0.9-0.1c0,0-0.2-0.8-0.2-0.8s1-0.2,1-0.2L1336.6,1750z"/>
	<path class="st10" d="M1942.8,1761.5c-0.1,0.8-0.5,1.1-1.2,1c0,0,0.2-1.1,0.2-1.1L1942.8,1761.5z"/>
	<path class="st10" d="M1916.9,1777.1l-0.7,1c0,0-1.3-0.2-1.3-0.2c0,0,0.7-1.1,0.7-1.1L1916.9,1777.1z"/>
	<path class="st10" d="M1920.6,1774.4c0,0-1,0.7-1,0.7c0,0,0.1-1,0.1-1L1920.6,1774.4z"/>
	<path class="st14" d="M1369,1768.8l-1.3-0.1c0,0-0.5-1.2-0.5-1.2c0,0,1.4,0,1.4,0L1369,1768.8z"/>
	<path class="st7" d="M1833.3,1964.5c2.8,1.3,5.8,2.3,8.5,3.8c84.5,48.7,168.9,97.4,253.4,146.1c2.2,1.3,4.1,3.1,6.2,4.6
		c-0.5,11.2,7.4,17.9,13.7,25.3c11.5,13.5,22.6,27.3,34.8,40.2c11.9,12.6,21.2,27.2,32.9,39.8c21.4,22.9,40.2,48,61,71.4
		c22.2,24.9,42.8,51.2,64.7,76.4c6.1,7,11.9,14.8,20.8,18.7c2,6.7,1,13.5,1,20.2c0,41.7-0.1,83.5-0.3,125.2c0,5.2,1,10.4-1.1,15.5
		c-6-0.1-9.8-3.6-12.4-8.4c-10.6-19-28.1-32.2-41.1-49.3c-13.2-17.4-29.5-32.3-42.1-50.4c-8.1-11.6-19.4-20.4-27.7-32
		c-12.1-17-28.4-30.5-39.7-48.3c-6.1-9.6-15.2-17.2-23.4-25.4c-8.2-8.1-14.3-17.8-21.7-26.5c-18.2-21.5-35-44.2-54.3-64.8
		c-17.4-18.6-33.4-38.7-48.9-59c-8.3-10.8-17.8-20.4-26.4-31c-9.8-12.2-18.9-25.3-30.3-35.7c-12.5-11.4-19.6-26.9-32.7-37.4
		c-5.4-4.3-9.5-9.7-12.4-16.1c-1.3-2.8-2.9-5.9-5.3-7.6c-14.5-10-23.4-25.1-34.5-38.1c-11.2-13.1-21.1-27.2-33.1-39.7
		C1838.4,1977.4,1833.4,1972,1833.3,1964.5z"/>
	<path class="st14" d="M1035.9,763c-0.3-0.9-0.3-1.8,0-2.7c0.3,0.6,0.7,1.3,0.9,2C1036.8,762.4,1036.2,762.8,1035.9,763z"/>
	<path class="st14" d="M1577,2434.8c-0.1,35.6,1.8,71.1-0.4,106.7c-0.4,6.2,0.6,12.5,0.8,18.7c0.1,2.7-0.4,5.4-3.4,6.3
		c-2.8,0.9-5.3-0.2-7.1-2.3c-5.5-6.3-10.6-12.9-16-19.3c-17.2-20.3-34.5-40.5-51.7-60.8c-11.4-13.6-22.7-27.3-34-41
		c-14-16.9-27.9-33.8-41.9-50.6c-15.3-18.5-30.5-37.1-46.5-54.9c-15.8-17.5-29.6-36.6-45.9-53.6c-14.8-15.4-27.8-32.5-41.8-48.8
		c-20.7-24.1-40.4-49.2-61.4-73.2c-8.9-10.2-17-21.2-25.6-31.7c-2.5-3.1-3.1-6.5-3-10.3c24.6-15.1,49.4-29.9,75.2-42.9
		c0.2,5.1,3.3,8.5,6.5,12.1c17.9,19.8,34.2,40.9,51.1,61.4c14.6,17.8,30,34.8,44.4,52.7c13.4,16.7,28.6,32,41.6,48.9
		c15,19.5,32.1,37.1,47.6,56.2c14.1,17.4,28.7,34.5,43.1,51.7c17.8,21.2,35.3,42.6,53.4,63.6
		C1566.2,2428.6,1569.8,2434.4,1577,2434.8z"/>
	<path class="st6" d="M1577,2434.8c-7.3-0.3-10.9-6.2-14.8-10.8c-18-21-35.6-42.4-53.4-63.6c-14.4-17.2-29-34.3-43.1-51.7
		c-15.4-19.1-32.6-36.7-47.6-56.2c-13-17-28.2-32.3-41.6-48.9c-14.4-17.9-29.9-34.9-44.4-52.7c-16.9-20.6-33.2-41.7-51.1-61.4
		c-3.2-3.6-6.4-7-6.5-12.1c26.8-16.6,54-32.7,82.1-46.9c4.9,17.9,18.6,30,29.4,43.8c13.8,17.7,28.4,34.8,43.8,51.3
		c12.8,13.7,25.4,27.9,36.3,43.1c12,16.7,26,31.4,39.4,46.7c15.4,17.8,29.6,36.6,45.2,54.1c7.3,8.2,12.6,20,26.4,20.2
		C1578.1,2338.1,1577.8,2386.4,1577,2434.8z"/>
	<path class="st7" d="M1577,2289.7c-13.8-0.2-19.1-12-26.4-20.2c-15.6-17.6-29.7-36.4-45.2-54.1c-13.3-15.3-27.4-30.1-39.4-46.7
		c-10.9-15.2-23.5-29.5-36.3-43.1c-15.4-16.5-29.9-33.6-43.8-51.3c-10.8-13.8-24.6-25.9-29.4-43.8c24.6-15.7,49.9-30.3,76-43.4
		c-0.1,4,2.5,6.7,4.5,9.7c16.2,25.1,39.8,44.1,56.7,68.7c4.7,6.8,10.8,12.7,15.9,19.3c16.1,20.5,36.5,37.3,50.7,59.4
		c3.6,5.6,8.4,11.1,16.5,10c0.8,38.1,2.3,76.2-1.1,114.2C1575.1,2275.8,1579.6,2282.5,1577,2289.7z"/>
	<path class="st4" d="M1576.9,2154.1c-8.1,1-12.9-4.4-16.5-10c-14.2-22.2-34.6-38.9-50.7-59.4c-5.1-6.6-11.2-12.4-15.9-19.3
		c-16.9-24.6-40.5-43.6-56.7-68.7c-2-3.1-4.5-5.8-4.5-9.7c17-12.2,35.8-21.3,53.8-31.8c29.4-17,59-33.5,88.6-50.2
		c4.2,4.4,2.6,10,2.6,15c0.1,56.7,0.1,113.3,0,170C1577.5,2111.3,1577.1,2132.7,1576.9,2154.1z"/>
	<path class="st5" d="M2952.1,1907.7c0.2,5.2,0.7,10.5,0.7,15.7c0,116.6,0.1,233.2-0.1,349.8c0,6.5,3,15-4.9,18.5
		c-9.3,4.1-10-6.8-14.9-10.6c-18.2-14.6-30.1-34.8-44.8-52.5c-12.6-15.2-26.6-29.5-37.4-46.1c-5.5-8.4-13.4-14.4-19.8-21.8
		c-19.5-22.5-38.7-45-56.6-68.8c-11.2-15-25.1-28-37.8-41.9c-3.9-4.2-8.8-7.5-11.1-13.1c25.4-16.8,52.4-30.8,78.7-46
		c44.9-26.1,90.1-51.8,135.2-77.6C2943.3,1911,2946.9,1907.6,2952.1,1907.7z"/>
	<path class="st8" d="M2952.2,2533.1c-6.2,9.8-6.7,10.3-13.7,2.4c-15.3-17.1-30.2-34.7-45-52.2c-13.1-15.6-25.9-31.4-38.8-47.1
		c-21.2-25.8-43.3-50.9-65-76.3c-19.3-22.6-37-46.7-57.3-68.5c-16.4-17.5-30.1-37.4-46.6-54.9c-20.5-21.7-37.6-46.2-57.7-68.2
		c-12-13.1-22.9-27.2-34.5-40.6c-3.4-4-3.5-8.6-3.9-13.2c19.3-12.6,39.7-23.2,59.9-34.3c-1,10.9,6.9,17.6,13,24.1
		c26.4,28.2,51,58,75.3,88.1c7.1,8.7,14.2,17.7,23.4,25.1c8.8,7,13.3,18.3,21,27.1c23.4,26.7,45.7,54.4,68.9,81.3
		c29.4,34,57.6,69,86.3,103.5c1,1.2,1.8,3.2,3,3.5c14.4,3.2,12.6,14.2,12.4,24.8C2952.5,2482.7,2952.4,2507.9,2952.2,2533.1z"/>
	<path class="st6" d="M2329.3,2390.8c-9-3.9-14.8-11.7-20.8-18.7c-21.9-25.2-42.5-51.5-64.7-76.4c-20.8-23.4-39.6-48.5-61-71.4
		c-11.7-12.5-21.1-27.2-32.9-39.8c-12.1-12.9-23.3-26.7-34.8-40.2c-6.4-7.5-14.3-14.1-13.7-25.3c5.9,1.1,10.4,4.9,15.3,7.7
		c63.6,36.6,127.1,73.2,190.6,109.9c5.5,3.1,10.7,6.8,17,8c5.6,1.1,7.7,3.5,7.4,9.5c-2.2,42.4-0.6,84.9-1.3,127.4
		C2330.3,2384.7,2329.6,2387.7,2329.3,2390.8z"/>
</g>
<path class="st15" d="z"/>
</svg>
